<mxfile host="65bd71144e">
    <diagram id="2oK10pxe-4DBFFcPRMR-" name="Page-1">
        <mxGraphModel dx="963" dy="549" grid="1" gridSize="10" guides="1" tooltips="1" connect="1" arrows="1" fold="1" page="1" pageScale="1" pageWidth="827" pageHeight="1169" math="0" shadow="0">
            <root>
                <mxCell id="0"/>
                <mxCell id="1" parent="0"/>
                <mxCell id="2" value="" style="shape=image;verticalLabelPosition=bottom;labelBackgroundColor=#ffffff;verticalAlign=top;aspect=fixed;imageAspect=0;image=data:image/png,iVBORw0KGgoAAAANSUhEUgAAAoEAAAFLCAYAAACpyFb3AAAABHNCSVQICAgIfAhkiAAAABl0RVh0U29mdHdhcmUAZ25vbWUtc2NyZWVuc2hvdO8Dvz4AAAA9aVRYdENyZWF0aW9uIFRpbWUAAAAAADIwMjLlubQwOOaciDEw5pelIOaYn+acn+S4iSAyMOaXtjM05YiGMzXnp5J8P2M1AAAgAElEQVR4nOy9eVhUR/a4/0LDFaVVaFyaoI0EEAUVxCUo0WDcF5y4JG4zks18MsFJBmcmOBl0/ImTiN9EkgwkGckiZoyauCQuiRIVghsqwRVcwCCtpNuFRqWJeKHh9wfI2kg34pJJvc/Tj3Jvdd1T1VWnzj3n3Lo2sixX8LBw8xzbPkpg7Z4s8owSKg9/Jr8cwey+ygctmUAgEAgEAsH/FDYPlREoEAgEAoFAILgv2D5oAQQCgUAgEAgE9x9hBAoEAoFAIBD8BhFGoEAgEAgEAsFvEGEECgQCgUAgEPwGEUagQCAQCAQCwW8QYQQKBAKBQCAQ/AYRRqBAIBAIBALBbxDrjMA9aXwzaD/5pnskTUtRYiJq8S3i8lq+akOazKiFJZWf5aVklbf8NR5KTBDzB4jY/6AFeQgwHObjvz7LuOFjGBoylZj0eueNybw+6lnis+odz13DC8PHMDRkDEOHh7Mu/34J3BgyeVtjeGHyxEqZ/rQBQ/0iB2MYNyGGtHpzPnVR1XdCxjDuzcP3S+DGeWh0k0x6yiSmpZ1p8Xp3LprIU28fbeF6zWA6w0frJvGvC0VNynRv2ipoNk3pJvSse2UiL6zW1j380Ommh4SiXPb228aRY00XLVmfwqZxGRS0sA4qODOfSd+s5ueWrbYa64xAdQe6jOuEYzMvZtq1n02D0u69orazIaC3Lb5tW75qVZBE0mIHNk6wRWr56h9aLm2BjyR4bXBzvn2DzKkb2PlZcUuLZR2FOaT228aRzLurJm9rAmsLBrBk7Xq+3foFEX3rFZDU9BsVjE/7esc9ZvDJru2krgrDW3F3MlhETiJ/fvsOBtrNwyR8dBiXsDi+3rqeb9+Zgqp+mU4BjBzui0u9w0MXbSY1ZTtLhj8ks+AudVNLjQ0Mq3k/rxuz+viYP286SmxEItkP3Fi9Awofnu7TjeSD6zl/p3JNtbUJ7tt60ASX39rMprm5lD5YMVqEJnUTStyDhvGER73F8WHTTQ8LkiOdQl1xcr6XF5HZGT2fdXrzZ128n2NYyWo++qmpm7LmYZ0R6O1FvwVeON2PQXI32NkydZI9TzZY0QTNwgQrv4SAUOj2oGV5CNDpDPBoAIEdlSiVElL9+SD1ZNpf5zDC7UFIJ5PxVQLbzhhrHdKS+mkiqVfqFTXoKZA706uvBpVSidKcPecxmoiI0PuzMNwND4Vukkk/uZmfH5nImDZ1zxj2rOHjXVrk6iNGsr9LYF26kYcRF6+JDC7ezFcX5UZKNN5WwYOjSd2EkqDZEcwefE+tmkawQjc9LLTqRPdFgXho7kHd+cl8vPowulpTzHBiC/EbT1Fn1tn6MNG7A8kndtwTb6CdRaUOHWbr87mUALTpwqADg3GrPbhOHyNp1mU6znPh2to8rl0Ch0E9GPhWT1zagGnLHjb9XVdd/IB/lSu6R09Gre9NO0ulNZpY+U0Z23MrMJTboO5gw5ix9sz0sKk8X2Zi8ZJS9pYD2DDxhVbMda/1fX0pL66oYOAIG3IOlZN1owKVpx0Ln7bD6/YCKJez+ZtSvjhVgVFpy8SBNhzdXcGTcyWmWmxUVpC1t4wVh0zk3ABJZcvEkfY829PG0grAaOKLLWVsPleBARu8fBTMDbXD16GqKakyLx61YaJbBXvPVWAEBj5uz7zBNR5K2WBi5bYydudWYLS1watnZR2327p7TQlxtnbMxFR5HTtbxoy3Z65fPTnPwdcX4FlzXkBTMdp3D5P5dQHFv4B953Z0CuvPoGnOYCrg+FO7OJtbVfb0Nta/A6DA7b2nGDT89iAq5tSs7VwYOADvX7I5vfkaxSZb2s0OZtTcThSv3kXS+g4MW+9ftcgXkjl1N5cnjmHY7Nu+n1Iur/6RzNU6ruWXY+vmhGtYAP2muaDIP8XOcSe4VuVxuDztS84BKDrRNyUET4v0oczORVNZnHJ7ekYzdBeAkvFvryeyP2DaR9TYaFJlADXTPlhJuK8lddfFcHANyz/dTFpOIag8CZoyh/nTA7DsDdoSvQYHcPLTJbx+8xa6y6eIirTHdeyzhHWsKpKTyB/+bw15Vf2ROXsMHwP0nsPX/67yBh6J5amIHZXh4dbDWLY1kiBrDazb7wJPySLvpoRrn2HMeXUOIzQt6D28S91Ei4yNKkzH2ZF3lf6P9W8QJVD1DabbmkRe31VM0eVb6N44hdIvlLCQWr+q4TCrYhPYmK7FgBJXTU/Gz13A7N61ajNdYFtsIglJ5zC29mR8xEIihtQIaczawPK49aTlFCIrNQQ9NYd5swegMp0iflYkujlfsGR4vZFkOkrs9CUUvfoFC4dUXcu+P8Gdi3gv5zivdWnYnju1FUxc25TBkYSLXMsvB2cHnEJ86bfIg3ZYvh4UvLON1NOPMnDEdU6tyOfaNXAI9OXxhJ44nT5G0qyrdPt2ON07V5a/HL2ZfVd7M/E9D24PAZNWS+Y7WWgP3KAUBxwHuuO3wB+3zqBfsIm9m277/w7zTa9Kz5TDrBAm/L1Tg1aZRybvu3hi/7uPk3oZqb2K7oPDiPzrMFxvF2lqHshadsbHkpB0jgJlV0bOCED30T6837VUf1igmyhkU8QMYo9UlvCes4JPZllv2dxz3XTXmMh/fTPp9GPcMg32tw9nZLD15UK6b6kaL1d1ZL51jNw9NyjBAafhPvR9wweX2w5Sk5a9A9PQ3wJwxHP1ePr617tSbi5H/3kCbWYp9l5ueA600qXtNoAnVInEvrEduUAP8fM5oBzA7DDPBnOqm/tgHsnYzv6iqUxt4QinZUbgwAFMODmgMu/m9UaS4MoKyc/wYOj6SbQr0nJo1mGOr9cwbLYjitAhTA2tdP9vjrJl4N6guoraIio4tKOM9b/YsvAlO7ykCvQXyqmT2WCnYOEiRWVO4LIy89WUl7M7z45lr7RCU2Ji6YpS4g4pePdxG6CCo9+VsuKCDS+F2TPQroIvNpWSU27Lk1ZIqk0tJeoQTB0vMd8VDGdNLN0gI73UipkW6ZYKNq8rZX25gnkv2uFlKueLDaVEbbLh4xmK6pCdfNVEVh+Jj6fYQn4Zr39WSlxHiXneNvCLibhPy8jxtmPhK7aoysrZvqWMqG9s+PhpRfWkNWabMMyQWDUNclJK+fO2Mgb62DOw1si4dALOuEBA/ZggULI5gx+/hh7vjMTDXUFJ3mV0l6rGiMKFPlueoQ83yJz6PbrxYxjxXGMBOxPF67PIf96fobs6IRVdQ3fWvpGyDbmWkMK+T0HzRjD9BjpCno5zh4opxQWFW09GHOtZGfIbcYa2q8bT18/iqquQGLFoMyOAtDenEmWKYOeC4LpFFMEsSdpemRM4OdHaCwAgZyXwWvRhvOdE8sljari4j/iYJSxWJrBsgmUWieQ2gOlhRuIXx5KmVeEXvoCwUZ41itorjM93hUH+Bv743G4GfRzP7PrrQd8Ivk6JqMwJjG5OSwrZFh1Jws1Q5r31Ct7tS8n8cjnLoxJx/XgOfi1lB96lbqJFxkYV19I5fsuDMR3MaGmlhhHPzKTo/Wji9QboG0H408G4t75dQCYtIYZVBaNZ8p8YuktF6E4f5jwy1FoSDClb+HHOK7z3n7Zkr4lmaexKBj0WQZAEXE9maVQieYMjeO8fPZF+2sLSmGgWK1fw7mRPeveQSD19AYb3rCub/hxnr3dlVI/aP0pbend+hKKz6eSW98enfszoTm3VniV9iQ7Hvw9lVIgDpqs3uHKoJthqzXpgOnmaU8696btuAE6tSig4VIzFWqFQy6Hn0ijo1Zu+qzQ4tSnh2q48iq8CnUEdPYmp0ZXh4H35vZkQ52F53bfJ38LS2GO4vhrN54PVYMgh44hcy5PT9DzI/u8Slu7vTPiyOIKUF9i4PJYMWYm3xUJYoJtwZlLsdiahZ90rL5FkbTu5T7rprlGgHt0ZFl1E94sGTZWX+vJOHaX+Pmg6AxRz9vX9nL3lwcDVQ3CSL3M6KoO9iyRGv+OBA4BCw+M/aipzAkPqJ3cDpgIy5x1G5+ZP8KYuSNlnSI/SYnK25q5RifeomYRdX84/EvTIymAWhocSqDajHJ364KNYTbpOZmrblk3BacGngx1xe96Ldq2ADm64DbTl2slCWjLdQ3+jAmUHWwI62aByssW3tx1jPKzwrgFgw5OP26GRgHYKnvSwISe/avEoK2d7ZgUBT9gz0d0WtZuCl56wMvevzMT6tAoCRtszs6ctaidbfAfaMdWtgt3HLXyK5KqJ7RdseHKUPY+rbVC7KZg7UgHZJvbWjh45KJha5fmT3BRM9a5gb0Y5MqA/amK3g4J5oQp8O9igVit4doQtnDFxqJavWXK3Y6anDWCDVx9bvErKyan3dMD5C4ALdDajqOVLxdDBGdd+7XDo7IjTQA96hpqxFi2hhxf9n3PFsY0C+84uaIZY6CO+dZGzq27g9MfB9AvtRLvOjrQb6EXfuRocmifJA8JI6podFA1/hfm/C8Bdrca9/xTCQzuTsWtvw4c2zCKTuWo+ryVo6ff7UAKHz2CCvJ6oiHhSLaugZcjZzNr0roS9EcZQXw2ubp6MeHkmQYbdJN1t3p3V3HvdBMD1n/m5woVHzKxohv3x/DlqPfKoGYzsE0rYY3oSXp/Px0duT+hiCq7IKB8NIFDjjEqtwS9kCuN716usRyhzJwfgrvFkxIzRuBtzOFuVS2Tcs4M0UzBzwofh7abGfcgc5o5VcfLbZPKQ8PbrSsHpLAyAMX0Niz/ahw6Qs7PIU/vSq16ko4PjI1D8Mz9XWNdWrhopwRGXIS44dnCkXQ9XPGdrLI/41MauM90XeOHSQYGirSOdhlue91n89Rn0aOj/Vk/cejjiqHHB7blAujfXyDeHQY8OZ3o/1hNXlTOuXgMY/3Qw1QGopuaB6RRJSXq8p4QzqbcGV49gwp8fhuqhS7/49egmxSANrlwi/0DVjYfpMvkpJbiM7lK5HuRq0R5zoNtfAnHzdsTRz4OAua6Q8hP5Vy28yLGf0Gqd8Xzdh04aR5yG+9NrtJW3EPpkYv4cw1blFMKGBDB9hhc/vh9J1FfnaJCEYePCI23gZ2PLB4Qt8wRaVJMDjh1u/6HAXlLAjZZMtbXh8UBbvvimlNmXTQzsaouvty1PeltppNnaoKp18yrZASVU3m/fqEBbZkNApxrDUtnRFrWtFY8A36hA+0sFWV/dYtRXdU8pncxpUzMUVKC3tWFi51pydrZBXV6OtgBu3zZJ7WyouWmwQe1sg5xbgR7Q6yqQL5fxyqJ6HlFbWwy/UO1ckJTU3IXZVR6W6/1sN2WgFbSmIe1Ge+Cy+hjJoVfpOLADLv6uaMZ1wrGVZU2tQYFDL+fmGW0/F3HjFwc69Wv2YwEPB6YLnPnJiGHPfEZ8U++cxkCBCQsWBwnvCZG8p3JGyklkY7qKwKcjCRxViLH+gyr3EGN2Djr5FLFPjyG2nnxDDXW9W/ece66bKpHLqyaKmd9I1WcmSx5zRslRYtfqcR08gyWPjcEg3559zgwaO4BVMdH84Sd/Av186dV/GCMfU9fpKaWbuubhHaWStpQiV60Yuot6cPPHu9ZEdX+0K2zVkmeCoX6+uPw3h7OyDEmbSd3vTr9ngul++hx4P4l7PbklW6DcfE7gndqK36N49Ejh+NTt6Ae54NSrM27jNLh0MFO2CRQeLjUhOqswce3sDejpVRn2v1f4PMlkr2TiX3yJH/r706uHL08MH4Z31Y/U5Dy4qSXPIOGqUdecctfQTfGQPTTxa9JNbVxxC4H0HTpMwzUoTl5Ef9WF7iFVq8vF6xTjiGctV6vC2xlHrnIjH7BgnJbmFVMitaVddd63grbe7VAcskLOjgOYs2QYqvYyO4+A/OgwZr8ZjMFgRjvatqKVLdxqJMB5N7ScEXgfUPlLrPIo51B2OVk5JlauLmNziMQHIdY5NKV7vDuibGvD1DmteOlePxhQXgHl1Phzy6G2e0PytmfjHxR3XG7Nnauv9tVOQBEUAp3rF/bwYeiOLlzeo+NKho4Ly85wdlcgI+K8rH5SU9HKwjspE7S8G+dhQcIvfAUfPq1uumhjNaiqQhIqf0Y+VlVPe+cWDLlYSPvRLNsYYX0u4a8UycGFtjbnKSqBBoNfebv/1QwaBS4KQOGMqtYEVA1fwOd9zpGRfpQf03eT8MYatj4fx4e1crckcwFLC+aCBODhi7cpkZO5WRT95Mv04Xp+PKJFzjHQfYhvA11QJBdBq260NRNsuWNbW7ngt2oiXX/Uoc+4hH7tYc4m/syg9UG4Wfs8QiuFWTvTHOZu1e+5mpB6MvvfK3ni+GEyThzlwNexrPryEEs+jmTobcPmTvPg4XwuqBF+LbpJgXqUK7xxkfxfNDju0FHSzwe3Jo076xSVwq7uNxTWWlMKJar2ABLeQ4bhqqz8v8rcswflRVy9BR0cWn7Lk/u7WbQCzE9Vy5Ha2fJ4PztemtaKhQNt0GaX08iT1dbTzgaNXQXayzUeO+OVcvTmRLYHyhoaTLSzwcuhgqxcC71+5nCxQV1eQc6lmkPypUrvoKaWEpVvVKAtuf1XBTlXKpBcbFADGlcb0JVztLGH+6ygW3dopYMzjdXVxpFOo73w+/sQhi/pAgd0XP6lbhFbBVDWPJUstVHALVMthV5CcWGtuh5pS7s2JRT8aMkWNCa41SwxWg5JQqKUW/X7U9EVn0ch7/ipllkbVAGMH9J8hW0JkiQhy3KDeaD09sL15ilO5pr9Wl1kI4YrhRhbYKzeHXc5NlQ+eJBL7vU7FVITNDag4VY8VUgdPQkaO4XwBfH8a7KK7LTD6BopWx/XLmrI15J9s+ZY3k8XwE2NqwJo7Us/Dz0nd+7jrOtAJg/xIi99Byd+UuPdo6F1dr7gZ3DywcPcKtFUWxX2tBuoofvLAxi62p9O13Tkn6xfBpq9HrSRsKUcU/XvVcrNq6W1dIQCp+7tUJy6RMEvZmuoJYcCTHdhLiqUuPcdxqTZESz7IJyg64c5cLryVJPzoLUGd5WMTltrFcvTcv5B3eQ+NLpJxnilEEMzlYJioDuuikvkp+jQppTgMqpLTZSpiyOOFHPtp5rypuxCinHA0ULHjb17O+x/Kaa4sOZYcV5Js2863ENG43cnS7gkl59L2tKtQ2OpVs3vr/tqBCrc2uIoF5KfUkzpLZOV866CvbtL2XymHP2NCgx6E7t/qkDZwaZRhWo1draM8bPh6J4ytl+owHDZxMo95pWU0tUW9S/lbD9RjsFYUbOA2SmYGmRLTmopcUfK0V6rQJtnYvN2mZXnLJSjgy1Pdq1gd1Ipe/UV6PNNxO0ygaeCx2sn1pSV88V3JnIMFeQcKeOLXBseD6gMj6sDFDxuayLuqzIO6SvQXy3n6LEylm8ts9podgiAECDtVMNzNzYdI3OTjmv5JZTkF3B+ZyGlj7SrzL+qpjWOXaDoQD4FhSZMt6ybKvY9nXG8dBntsVLAxI31OehqTT5adaH77HZc+3A/R7YUcONSMTeOacn87CIltStq54ijUylXki9T8ou1468F6ehJ9/Z6fvj2MHlXCjFcvz14lAx9JhSXgyuI+nQf2fl6dDlHSf0qnpivLB0895fuPbzg+Ha2ndFjMBgx3u5Tr9FM729g7b9i2HREi06vJfPgDj5+M4HU+obDwVieeXoGUd8V1q/+/tESY6NNfwZ3KOJE/vlmfLmQ1FUJbNp/Dp2hEEPOPpKOGFC6axrs0dgYysGjCWIfCfHJZOv15O1PIO47A96jh1XlqDnT3U/Fya3JtOo/EJXfQNzTt5Aqe9Lbo35t50nXX8VH09/89e/U1mNnOJKQy+XcYkqu3uDylosUKtrh5F632F2tB52dcHa6Qf6OytzO0szTnD9UtwLHp3xQk8+RBafQZxdTnF+Ift0Jzp2uW5WjuwOc0qHNLa3UTdbIkbWF+NXJZGoLMRj0ZCTt5ayiK926VJ1vah4oejJquJrsDfFsOqFHl3uYjz9NtjDH7h7wsOim68lETZ/BM83dS7BVJzQhCvQfZpB/1YWuIbUSjTzc0fiXcH7ZMfKziynOzOVonA4efxSNpSkL/u5oNNc4l3iZUsCUn8upb+/dPriyPp0TrYIJbhCKq+Iu+ssCB2Yxp2ZtI7PWjtkH/L8EwOm1MYyYY0W6r7c3fWZf5kjUNr4pwuotYqTyCrZ/V8qKaxUg2eDlbcfCsTXhzpztt3hlfy0P3CclbAbwtGNjmJ0FLmcbAsba89I3paz87BZxbWyZGKRAs9uMV0+tYF5IOUu3yUwvAdVAibUTKm1qzVB7ltmVseKHUl75pgLa2ODlbstUi0Mhtkx92h7jljLiVtzCYFvZ1iWhijoGr9RBwZOtTER9UIrRzoaBI+x5yacqdtNGwbznYeV3ZSz/uKx6S52AAEv6oR5O8OwTELED/ulPnbw9RRsTBQkZ5LxVTKnJHkf/LvRb3qsy3FWNPW4v+5P/9xOkhpzAZKq/RUwT9PClz3NXSQ/fjNbZEZfR7nR59DI3aos4ZwjBrY6S+WEqu6LKsXVrR6ewwLrBM4UrPf6i4cB7e9j6mal524DcgeyPnuWFtTUmdtorY1gH8FgE38aMrul3RQBhfw1lcWw0f/hKrnxa9+MZuANS7zm8F60kLjGB19bqkSVnXHsEMPLp+7nppZ51r9R948nrw5OBhltLqMa+QvjxJST86VliZYkR0ZtZOARAzfgFMZCQwNroucReB5W6K70em8gT9ZJLjUYZUKLqaG0CQQvqphYZG48wxqc/n51M5vyA56zcU9MeZZmWNfFRxF8pBEmN9+Aw/vXyAMuzJ1XDmP+WgeXvreCPswqhvYbAyQuYP7nm9/L280T6Sk9gX2do7U8/b9h505de9S9SkEyysT9TvR6xvq1tFJQeOMOhVRmU3AD7R13QvBVE9/pPoN/NetDKlR5vaDgQvZvNqx1oO/BR3IY4cK22J9dZw8DP4PiyLNJnnaAEB9r164JfSN2qHMf1psf+DE5O3cSRW1ZuEdNawpi+hn98GYvBCCqNPyPfiGRatUep6XngHRbF/OuxxL3+LPGtPRn5+9EEntln2fUt5WAM4yKTa7x4WS8xNIGG2z89LLrJaOQW4KJubt0KOo7uhP16LaUhvrjWmcft6L5sMKXRx0ifdYZSKrcwGvR3j+q1reCdbSTXfrnBrKqto4YE8rsPvbBXuOC3PJDSf6bx7RCQOjvjFuLMFWtyAi2miH05+2n7aCyDG1sy76K/bGRZvou45W+A3FKmr67gpdclnnxIXo4AVfsEnrTlg1fsuBf7WDbgPIx7BcI+h2nNfPhXIGiITFrMTKKyp/DJf2Y0eDjhV4fpBO+vX0hR0Dr+4f4QKQyrkNmfMo337BfzeXDvxo3Q/4m2PoQYd/D65DW4W7xP4P8exqQFPBVbSviqpUxqsT0Ef6VcX82Lm9OZ+FQsExtJCbyb/rq/OYG/Bi6b2HyqHP0vFcg3ylm/txzZU8HA37qO6wbL/wxcftCCCP6nMJ3jx0x7hoaF/voNQABFb5574jm6ld6rN33eB8p/5lb754gacAcDEP432ip4CJE5eSQHl7FhjP+tG4BAUXFbhgX/rVED8G77S3gC65NfRtQGE1nXqt6y4V31po6H7NVI990TKBAIBIJ7j/AECu4jwgi8r1SQtb+M3XfI+pVcFbzUTzhoBQKB4LeO4eAa1hw0NNyFogpJGcDk54NrXlEnEFiJMAIFAoFAIBAIfoM06XI6czb7fsjRJA+LHAKBQCAQCAT/C4i4o0AgEAgEAsFvEGEECgQCgUAgEPwGEUbgg6Qol739tnHkWNNFS9ansGlcBgX38i0X2jW8MCqcdfn38BqNkPIWDPqAum/4EAgEAoFAcM8QRuCDRHKkU6grTi30xgrzyOyMns+6FnvBshn2RDNiQgxpd2GghvwBnL+BtWIfQoFAIBAI7gvCCHyQtOpE90WBeNyLjf7yk/l49WF0tfYWMJzYQvzGU41uN/BA6QLP+MJ/vn7QgggEAoFA8NvAgncHC2owkf/6ZtLpx7hlmpr30mZksPXlQrpvGU73zsBVHZlvHSN3zw1KcMBpuA993/DB5faO3yYtewemob8F4Ijn6vH09a93pdxcjv7zBNrMUuy93PAcaKWbzW0AT6gSiX1jO3KBHuLnc0A5gNlhnjVvAbh5jk1vLydxzwWMKk8mPVXPGjWdY1tsAhvTc8i7IiOpuhIY+izzZg1ApQA5aQHj3jxcbVTefr9s7fdNkp9M/EfrSc28QMF1UGr8GRkWTniIuoHIYwfBvA1w7AXw/194e4RAIBAIBA8xwhNoFQrUozvDgYvofqk5enmnjlJ/dzSdAYo5+/p+zuo70Xf1eMZ+1hvn0yfZuyi3Jt9NoeHxH59h6oEBqFuZuYypgMx5h9G18yF40xgef0kif30B1pmBSrxHzSSsv8x5rZ6z1zyZHhZKoPq2CSiTFh9F/GkNc/69gs//vzEYdySTXfsipiKM0gBmRMbw+eoVfBj5JPKWaBZ/UxlblkZFszNlO6nRwUjKYSzbtZ3UlO2k3jYAAYxGZO+JRLwVx+dr4/jXFCWpby7k45yGEnf2hW4/Q1qBVQ0VCAQCgUDQDIQRaCWKQRpcuUT+gdLKA6bL5KeU4DK6Cw4AuVq0xxzo9pdA3LwdcfTzIGCuK6T8RP5VCy9y7Ce0Wmc8X/ehk8YRp+H+9Bpt3/T3aqNPJubPMWxVTiFsSADTZ3jx4/uRRH11rtJzJx8mKaWYwN+HM95HjavPaMJn+Nd9V6gUwLRXpzCiryeuajXu/acQNsSRk0esCCn7hBIxezRBPhpcO2rwmzCD8Ro9Px4vbFi2E6iB8zrrmioQCAQCgcB6RDjYWtq44hYC6Tt0mIZrUJy8iP6qC91DHCrPX7xOMY54etd8ReHtjCNXuZEPdGj6EqV5xZRIbWnnVl0Dbb3boThkhZwdBzBnyTBU7WV2HgH50WHMfjMYg16rV5sAACAASURBVIFKQ++KFp2sope7svoryke9cK1zkUIy1q4gYcthsvVG5Ntewv4yMtz55fK3MZ5j00cJbNyfRZ6hxnT0vlkE1HsiRgGtgJIyK9opEAgEAoGgWQhPoNUoUI9yhQMXyf8FCnboKOnXBbcmjTvrktwUdnW/obDWXFcoUbUHkPAeMoxeysr/q1S1TTeJVnUuUtewMyYtJ+q/evqFL+frpMpQ74dPq5GQLfQEyqR9FEV8ZmfC3vmiMnScsoJwHwmzse0iuAao25o5JxAIBAKBoEURRmAzUAx0x1VxifwUHdqUElxGVYWCAbo44kgx136qKW/KLqQYBxzdzNXWEHv3dtj/UkxxrYhpcV6JlTmBNbiHjMZPWe9gRw2ukoGfaz0+LOv06Gpd5OzpHOQ+Y5g+WINSAWDkfL6Zl5krJCQwYxjqOXu6GO9xMxjhoaw0MOVLnNGbNyFLzsPpVtCjm5UNFAgEAoFAYDXCCGwOrTqhCVGg/zCD/KsudA1xqDnn4Y7Gv4Tzy46Rn11McWYuR+N08PijaCwIBQPg745Gc41ziZcpBUz5uZz6trhl2yANYEKIkrRvtpAnA7KWTRsPY6xVxLWLO/x0lAxD5d+6lATWppsx4FzVuMinOLBfjyzLtbx8Kh7pIpF35FilcWkqJOPTlaQaG1YBcOxHoB+EWBRnFggEAoFAcDeInMBmoaDj6E7Yr9dSGuKLa53UtnZ0XzaY0uhjpM86QykOOIX4MujvHtXewoJ3tpH8WS2jbtaXnAMYEsjvPvTCXuGC3/JASv+ZxrdDQOrsjFuIM1esyQlsEonA8AXMeXs5rz29HpQqAocMwP24trqE64RXmP9TLMufm8ry1kpc/UYzYZSahPobT3tMJPzpU8TGvMQIo1xrixglI8IjOBOTwAuTV9JWqcI9ZAyTfBLIqC+ODF/vgUl/gfYt2UyBQCAQCARmsZFlueJOBc6czcanu/editwXHhY5BPeG69/BoPWwcQX0EHsECgQCgUBwzxHhYMFDwXngn5HCABQIBAKB4H4hwsGChwL/seDfdDGBQCAQCAQthPAECgQCgUAgEPwGEUagQCAQCAQCwW+QJh8MEQgEAoFAIBD87yE8gQKBQCAQCAS/QYQRKBAIBAKBQPAbxDoj0AQrF4HvCFCNg5TmvsdMIBAIBAKBQPBAsS4n8BB4/AVeXgGRPe+hVAKBQCAQCASCe4pVnsCSArjeFh7rfq/EEQgEAoFAIBDcD6wyAm+ZAAW0vkfCCAQCgUAgEAjuD9blBJYB4rVeAoFAIBAIBL96LDcCi2DtXmjlJd7vKhAIBAKBQPBrx6J3B5/+BAavgBIniP0A2t9rqQQCgUAgEAgE9xTLnw4ugv8shEUKOP22MAQFAoFAIBAIfs1YHg5uC9OfgFs5cFrsDygQCAQCgUDwq8a6B0PsAGEACgQCgUAgEPzqscoIbKUATHDzHgkjEAgEAoFAILg/WGUEOrhA+yI4ePZeiSMQCAQCgUAguB9YFw7uB/8cDol/Eu8OFggEAoFAIPg1Y927gwUCgUAgEAgE/xNY5wkUCAQCgUAgEPxPIIxAgUAgEAgEgt8gTRqBZ85m3w85BAKBQCAQCAT3EeEJFAgEAoFAIPgNIoxAgUAgEAgEgt8gwggU/LY4GMO4CTGkie2N7jl7vyphwrp72NHl5cS9XcKohZWfqB8bbnRgSJOrz49aXkpW+b0TpxKZ9JRJTEs708zv61n3ykReWK1tUamaI0dqbARPjR3D0JAx/CHhnJkyt8he/gTxK05Sdt/lA0wnSQp7gs1ptx7E1QWCu8d0ho/WTeJfF4oemAh2D+zK94wbZE79Ht34MYx4zvGBSWHatZ/NUbYM3BuEm+KBifGbIvP9Gbymf5av3xyNsrFCnQIYOVzG5X4K1hxMR4n96zEmvB2Gtxg/5rG1Ze5fHZhbXk7cchm9mSKqIImkIDAekpm+9z7IZFjN+3ndmPW0TzMrUOIeNIwnPNq2pFTWc2QDy5Ng8rtrmOxmjySZmVHaz9id7M3gxF7mF5J7PYYVvRg8zZv4Tz9jcNDLdLgHl4BCMr9aQdzXh8m+IqPs6ElgaBhzpwegAshdwwsvJpJd/15HM4VPPpuDN0eJnT6fTVeqjktKVB49mfD7cF4corZIgsz3Z/DH42P4/OMw3KuO6ZKi+XPsBQLfiCFyiDOpiyYSlSI3+G5gxBre/R1s+tMMYk9UHVRIqDz8Gfn7cOaEqJEA9scw7o1kCFnAl4uCK/WnfgN/nL2e7u+sIaI3GL6Zz1OxRxtcQwpZwM5FwVTewDxLons030YOsKhtjSEfjOWZBTuQ+0fwpRl9LmuTSfhoDd8f0WNEwrXHAKZHRDJeU1XAeI5NCQls3JNFnhFUbr6MDPsz4SFVfW44yqr3E9h48BxGhTPeg6cy79UpeCsBCtkUMYN41QJ2Lgi+XSHbIqcS2zqSbxcNQ7pjfyXSe8NUFpv5PQBQ9CR8dSzT1IDCh6f7dGPawfXM6voc3e6q15rH/6ARKBDcAY/RREQ8aCEax7BnDRvlYGaH3D5iJPu7NWR0nMG0/o2atoKHApn0k5v5+ZFXGdOmuXUoCZodQVBLitUMjFf0GNt70c/LGaVZA+4WuetXcm3Av+itqnvmfo5h5bAZeH/4D/YfeY6JfVu1aN0gk/lRJK9ttWf8y1HM82uLrMvhwMFz6EwBqKr7xZkRf13CjB61viqpcK96zSqA++RoljzVGW5eIuPLeOIXLYQPVvBiM+4VDCkx/Dn2HIGRsUQOca454TuDd+c9Tu3bB2VHZ6Cw8v8hEXz4fE+QDWTvTGR59HzotJJw35ryxoNb+P5KMJM6NnJxKYDwf88hsNaYkJSdrW/EHZE5uecQbUeF4rLnEGnG0YyoPWz0O4j6Uzx5fWYw751g3LlEdvpufr4MaADTOVa9HsGqm8GER8YS6CKjO72XH64UAmpAz6Y3F7KqYBgRy+bRvSyLNW/H87dYNf9dENy4A8EM5vtLIujlWD75feVfum9jiNrVlchlM+muABSOuNYq7+I1kcGH3ueri7P4WxepWT12N/y6jMCrOjKjj5F74AYl2OPg0QGPyMH4BSrAVMDxp3ZxNreq7OltrH8HQIHbe08xaHjVqC3KZW/ICVovCsD+2xPkHiqmvI0jmuhR9AuxRfuXrznSdjC/W+Radc0zJI/OwWXVePr43RaklMurfyRztY5r+eXYujnhGhZAv2kusGUPm/6uqxb5gH9VWKdHT0at7007S9tqOMyq2AQ2pmsxoMRV05Pxcxcwu3fNIDEcXMPyTzeTllMIKk+Cpsxh/vSA6kFsPLKGpe9vIC0fXPuHMlKZzKrrM/g65g6esnoYszawPG49aTmFyEoNQU/NYd7sAZV3wabDxPwuGt2oKUhHtnPWUEor79GER85haK1B3pSclXeQL5HUN5LJN7ewKikLnckR76cX8snzPSE/mfiP1pOaeYGC66DU+DMyLLz6ri4tZiqvf2esqiuWcSGxALhOjmXdqz0rDx+J5amIHRgAWg9j2dZIguotbndu61Fin16IbsIcXI5s4IccA7gFE76w1t0nMnnfxRP7332c1MtI7VV0HxxG5F+H4Wphf6v6BtNtTSKv7yqm6PItdG+cQukXSlhITW/dUU6MbHtjJgmKUJ64uY8fso3QvieTIyKZ3fdBGpEVHE2SWXzShrnPSjzZzsTiN8swetqgza1A1V/B41dMfJELAaPsWRJkC2XlbN9SxuZzFWiNFaC0YWCgHXNDFKhaMpGlvIK9SaWsPFqOVga1m4KZ4+0Yo7apKSOXsz2pjPUny9HLoOxgy8TR9sz0rFXGdJwdeVfp/1h/GqrypsZGpfch9khlae85K/hklqZODbq14Uz7qF5YtrZXAZDz95EQn8j3R7SVHo4hM5n3aijerW/LqCc1IZ6E746Rd1PC1S+Y2a+GM96jUmLDxgieev9UdfV/HL4FAPdZ8Xw+x7NWcw5zIvUaXecOaLCIWDKGa3tiDDjjN2Qqc1+dgp8SrBrDrR/HO/AaSTsPU9b38ZZd0PK3ELfRQGBEAhFjq4wtD0/8Bjcs2tbdE2+vxquSnDrjrtEAGtz/OocTB6M5cFDLiz6axr9kBsOeWF6LOYXfX5cSGeJc92QbFd28PFGZ/yq0VtXI4FHKj98tIC3tHOG+Vb+roidBfXLY+p2WSbMbkUvhiKuX572NTpiy+CG9FUH/CKXDT/NISTcyonrsyKQlriStfSifLJpRJYcGd98az6Nx10pW5Xgy57NIJrlVHnP36llzY6VNZusRiaHR4YzvLQGezAs7xFNvb+F7QzCTGu3Aetyhv5RqT7yr/i+52INC2Xi/2fcnuHMR7+Uc57Uu5nQHyMZCjDftUXZUmj1/N/yKcgJN5L+XxtmrrvRdN54Jm0IY+HwHHKhK8lG40GfLM0w9OYaePRQ4/WU8U08+w9STU2oMwGpKufhhNkwbwrj9Uxib4I9abXlXXEtIYV9cEe3+GMzwpDEMW+SO/ZViSgFF6BCmnnyGSe91QdFWw6Bjz1TKYY0BiExaQgyrCgYw/z9r+Pqz5SycEYALNe5lOSuB16KTkcZF8snqlXwS+STyhiUs3lp514chmaWL1qDrG8GHq+KYP1jLtl16GnFQm+d6MkujEsl+9CXe+2wln0QMoODLaBZvrB14k8k4qGfCsjV8vTGBcNU+Fi/ewG0zuEk5a9Wj25rID52m8+5X69m5aiFhflXhfKMR2XsiEW/F8fnaOP41RUnqmwv5OKfydFDkelJTtvPhZGekwRF8m7Kd1JTtNQYgQN8Ivk7ZTmrMMPOeDUvbmpLDoIUr+fabFYR3Okx8QjK3zU/yt7A09hiqGdF8/lUinywLZ6S7ZF2fKzWMeGYmT7TWk6c/R0HH0YQ9HYz77UXcIjnBcPAw0qw4vv7mC957BjYuimGnwTIRUqMnMjRkjNmPuXBQ01RwNKm0xgBU1Rynqx1LxtqgTzOR42vPuyNsyEozkVMOlFdgsLdl6iR7PvhzKz6YpEBOL2VxWsu+5Chnt8zSo/DkFIlVcyWmKsuJ+28Zh6p/uAo2rykl7icbJj4t8fGrEguDbTFeqyfHtXSO3/LAp4OZUG6TY8OZSbHbSU1ZSbiveTXvOj2e1KTN7EzazM6kNSyboEbS+NLrdn9eP0zsX2LJ6DiFf/1nJZ+/O5d+FxP5W+y+6jGanbiQxUmljFwQx7rPopne/hixf48n42bledXkWFJTtvNt5AAkdSgf7qqcS3UMQIC8H7lg9KZrdzNarakxjJ5N0QtZezmAeR+sZN27L9EtO5G/vZ1M7SFq2RhuRdce3pSc/JGrLZx+ajhymGx6MmqIc9OFrUEh0UoBclmpVV8r2B/Pa28ewz1iKQuHWxZKNovJiG7PXjKMILWxryWXkicmDMP47RYyrFJaLcyZfaTJ/vTz0RDYV8XJ/cdq5onpHAeOFOI6+PFGDFGZjIPHkL0eZ6ib+erl7Czy6Epv75p5puzhi7spB6t2xGux/mpL786PUHQpndxGcpbT3g7jqelL+P763VzHPL8iT2ApJfpy7L07ofZwRIEjDm7OdGpWXSZaTwykT0ilArPv0QW3quNNcusiZ1fdwOmPY+gXWmWkdPai78BmCdIIxRRckVE+GkCgxhkJZ1RqDdWOSIykrtlB0fAo5v8uoPLOQD2F8NDdvLBrL4YJoUj7d5BGMEteDsZbAibMZfquw8RaIYVxzw7STMEsDB9W6Ulwm8Pc4/t47dtk8ibPqM5P8R43o8rz58zQGcNw/7/dfK+dwmxN03LWvumSvUOZfzvXpnXPGm+iTygRtcImrhNmMP7ruRw4XsiLXi2joK1vq5onQnoS+2kWeaZh+CkAgx4dzox6rCeuKkA1gPF38A6Yw7A/nsVrjAz6/QxGGrQMekxPwuvz6fZ8FC/2VVosp9R3CmFVXhP3sVN4InEhW/cXMmJC0/0V9HIcn8wwv0BJ7bta16DyCg4llbL0JPUMQAAbfLvb4uVgi8a2HF9PW7xKbFGllKMvBy9JwcwJtYo72THT18TrueXIgxUtc0dcXs724xVoguyZ6V15IzhxvIK9y8vYnm3HQD8buFDG+lyYOMeeiVULi9rJFt/6dV3/mZ8rXHjEnMO1BcYGAJKEBBh2xbA0xZk5/56DX1VH6HZ9wfetQ/nk1dGVoUjUvPjSUb7/+27SbgYzQjpFUpIe9ylRzO5f6bmY9OoMDkyPZ+vBcAJDLO/RMp2Wa3RGacZr0tQYRpvM1kwV49+Zw1CPSjkjnj/ED9E7OGAYxviqOi0dw8qOnUGv5Xawr6Uo0BmQ2/ujqjJe81a9xB8+1YJCyfjo9URWewQL2fSnMWyq9d3AV9fw7mQzc00uJGPtF/xgdOaJPlbMJf12Fi8qxCAFMNmvkVamx/NUSHzN3wo10z5YSXiV7jR+t4Ch39WcljSjCR9V14PVqm8o45Xz2Lg/jMAeNOTmPqKGj6lzyO/llXw4veV6Pjv1MEV9wuglgbK/P0TvJUMOJkgCTHoKDODq2tj1DBRclpE6qRvN+zZeNyIrlLRtX+ugUklbZIqM1llzTfaXhXRwfASKf+bnCmhuNnFz+RUZgQ6oJ7lyasF+vsvuRCd/J1wGudNtSDus90zb4+TXTOPh5yJu/OJAp3738qETZwaNHcCqmGj+8JM/gX6+9Oo/jJGPVSXxmi5w5icjhj3zGfFNva9qDBSYgIt6cBuAu1RTp7uHI1K+5VLoLurBzb8mlAS4P9oVtmrJM1FlcEi4utWakGoNrmzh/EXArWk5a/JqJFx9fM2HMozn2PRRAhv3Z5FnqJmk3jeLgJYxAi1tq0vHGgmVkgQ3Zaqf6/J5ksleycS/+BI/9PenVw9fnhg+DG9LwwuAqs9MljzmjJKjxK7V4zp4BkseG4NBVlomZ1V/KtWda8LtCjWPqCEtT48l/SV11DQus5WTTT5XxuIzQCc7NPWdRrYg2VX9e/v/diCVU3XnX8HR1DJWppeTc6MC+fZdskcFMrSMEShXoDeCxrVWJKCNLV7t4OiVCsAG4+UKDA62BDQR05fLZaCV+T5qgbFRjXYDi9/PoterHzDNo+ZwXvYF5NxT/GH4mrrlFT0pug4oteQZJNw9ai387TW4d4SMfD2VCVUWYioBWmFn5kdoagyj06KjK91qyS496oU7Wzivh9tKwOIxrGgFphLKTFg9Pq3B/XeL+fyxZGL/tIG6zyM3zAmszMWrIfvTlxj6adUfrdUEPR9JeH8rRrARur+6gF7JMSS8vYHAt6dUz/VqGuQE2uNS6ydVDgnnved9kXWHWJOYRb/54QxtMP40TAj14vffJKPzrn8OszmByo4taHqbzvHDQQPdp1SlC/kFEGiK44fjMkH9JYv8NPeXJvrLQiRboLxxA3Toos2kNr/6O/IrMgLBcdxgxvYrQL//MpcPXOTk3LPkzn2SEXOsNQQUKCy14R7QoFMNX8Dnfc6RkX6UH9N3k/DGGrY+H8eH1XlCEn7hK/jwafMT8F6/56WO+qrdRyYZGbnW+TvLWafOVvZmjsqkfRRFfOZA5r8TxVAPJRJa1v3fXJLu029jsaqWejL73yt54vhhMk4c5cDXsaz68hBLPo5kaPumvw6A0rlq4VMzaBS4KACFMyoLhGj0NzH39x1IjZ5I1C7zCkn1u6V8HRFgeWVtFMybZsuh1aUs3W3LB6NsG+3POsfLwXislMV7YcwUe5Z42qK0g6xvb/H6JawLsd8nJAcX2tqcp6gEqK9fWmJsANw8xceLE9GFLOCTUQ31njQ4km/fHGa+j43mDjYPOycnHNBSYoQGd253MYbrYOEYLjPeAKWmkQdYmo+Lqwrpuh7DTUAJtFfj3lptNp+6qZxA98kLWBjaFUlqi4u6sYdt7oDHGMInB+PeP4wD/5fI0q8G8OH0ekZ7UzmBSjXeHp7g4cl8OZrfL06k+39qPMm3UQ0PJSgxkW0/DWtYx73OCdQe4oBWJjt2BkNvh61MoNqfBf0DQFLj0h6ydY3d0Kpw6SQh6/QUgNlcbGV7JZLJWHljdDvaZDRShISrUgJkJEUjg1UhNZhbd+wvCymSi6BVN9raNF22pfkV5QRWoujsgtuknvRdNpJBsxwo2nOZ4nplbBVQeVvYjPol4JapRt8UllBSu8AjbWnXpoSCH+tftX5FAHe3KZnU0ZOgsVMIXxDPvyaryE47XJlrp+iKz6OQd/xUo3rdtYsa8nPIq14tC8nLLbZq8aysQ0v2zZpjeT9dADc1rtVKQK48dhutljy60s3VMjmbRs/Z08V4j5vBCI+qpFj5Emf0ZlqiaNVso92ytlqAQol732FMmh3Bsg/CCbp+mAOnmyORmqCxAQ0UuqVyGvLOVedlIl/gfD64ult2xx70chyffBxv9vPe7xsEQe+I5GbLk24K5oYqMKaVsjLX8ny+nAsVyF0VzPSpNAChAm1BhdkxLNmBfKcUK3ugzIzxKNmgVoJWV2uu/lJOzg1Qd6zUyMpONqhKysnS1f9yPVQ+eJBLbmN5O3c9NoykxcewUTGFJeEDGhgj7t5dIftodX5fA1prcFfJ5OXW2oPwupa8K9T15luCey86ks2Vi3cqZH4M46rBlQucryWG/FMOeVR6+25j6Ri+mpcNj/aiY2Pz1FiI4YoR2UrdoOo7AG9OkXLw7q1nyakr3h4a3N2aYQBCjYdTM4X5YZ5kJ8awKqf58iiHzGSCaQsJ35nZWEk5gCkhMt9vzbrvN1t5+/eSpwll2Wcr+Lzq8+HzPTHu30emCVB4Mqi/M7qDextuywOARK/+/kg5e0ltJOolefvizgVOZNe0zng6izyFF929K+toqwRkuVb7jci/SCiVZrxHLdBf5wt+BicfPBqzyJo5hi3hV2QEFqP96BhnUwoovlpC8WktFw6VYP9oOxzqlGuNYxcoOpBPQaEJ0y1rek2BUy8nyjMuor8KmIrRJl6kuPZOqK260H12O659uJ8jWwq4camYG8e0ZH52sY6xqHBri6NcSH5KMaW3TJis+vEKSV2VwKb959AZCjHk7CPpiAGlu6Yqz0HJ0GdCcTm4gqhP95Gdr0eXc5TUr+KJ+ary6UHl4NEEsY+EhH3k6fVkbo1jbaZsVQituo74ZLL1evL2JxD3nQHv0cOqc88A8rYmsOqgFp32MKsSdlDg8yQjPSyTs2lUPNJFIu/IMXQmwFRIxqcrSTWjl127qCH7ED9ojcgyVhmElrb1jmRtIX51MpnaQgwGPRlJezmr6Eq3LpbL0WJyZq0nfuMpdHotqQkr+R5/Jgy2zGMuddTg7eVp9uPesXlBWGVPO+b1hs3flHG0pOnyAGqVDVwq52jVb63PrMzNa4CtDV6dbcjKNHHUUIHB2NBQVLraov6lnO0nyjEYK6hO/bG1ZUwfG7RpZXyRXY7eUM7mbSaOtlEw5vaTv13tmOoB6zeUsjm3HMONcnJOlfHFsXo3eW36M7hDESfyzzeUsQXGhiEphqUpasL+NgV3k4x8U0aWa1rqOnwqQ0km9s0NpOXo0WnPkZG0hpj3d1TdPPZk1Cg1eRs+YF26Fl3+KTbFryGt/TAmWBOaBFAF493jGrlHmhFz0Axjgp+BbXEJpObq0Z1JJvbTffDYMJ6obTFaNIazyT1yDXVQ41t7ZH76Ck9Nn8daa/ffdhvNnAlK0t5fQHzSUbK1WjJ3HWrE+Lh/uD8dwRyPC6z6f4lk1x7ovxg4n3OO7Fqf2ukzdVB4Mv4pT06u2WDmoQYJv6dGozxyuG79AKZidPWukZ1fTxkb9XXP30mOOuhJ23cBZd9ggjQa3Ks+fiEDcTccJiWnUrag388kyLCFqOg1pGZpyTtzlJ1rY1mVXlmLavizzPY4R8I/Y9l08Bx5OadI+y6R2I1Va45mGBP6yqQmxLPthJa8I1tYnngY5eDRjFRVXqNXf1+k9PXEJ50iT3uOjG8S2XhGIrCvOXfvHfrLIs6Trr+Kj6Z/o3mMzR7DFvArCgdLSGU3OLsslcxLpZgkB5xCejHoL6710kDscXvZn/y/nyA15AQmU70tYprAcVIAPQ6lkT5uE0fcnHGb6opLUl0XgNOcIQS3Okrmh6nsiirH1q0dncICqRPM9Pamz+zLHInaxjdFWLlFjD3KMi1r4qOIv1IIkhrvwWH86+UB1Uac1HsO70UriUtM4LW1emTJGdceAYx8ukqLqoYxf5GepbGxvPANuPQPZfzwc6yy8AnR6jreMrD8vRX8cVYhtNcQOHkB8yfXDkNIBP1uAGc/mscqrYxL31AWRk6pdsM3KWeTKBkRHsGZmARemLyStkoV7iFjmOSTQEZ9cYeHMSc9lvgXpxIj194ipnIT0/ismrKvD08Gam3FYVFbm6C1hDF9Df/4MhaDEVQaf0a+Ecm0Rp5SaxYWyqkKmUi3gzG8EG8AN39mL4pkRHPyz1oMGwaOtePJD0pZvs2WD37X9DfUA+2Ye6mMuPdvEecAKjcFY3rbsPJaw7qfHG3H0a/KiHq3DNnWlnl/lRhT2ypQK5gXUs7SbTLTS0A1UGLthMp7YK8Qe+bLZazYILOypHKLmLkz7BjoUFP/xBn2SN+VsX6dTJwMqg62TBxdX6c8whif/nx2MpnzA+pt/NrU2DgYw7jIWk+aZ73E0ATqbGd09sgpDEYj8S9OpTr9v/YWMe2Dmf9uJKs++oKlf0qo3FrKzYvAcWHVeWLeYYtZePNdEqLnEm+UcPUNJvKtcIKs3j1IQ+9xj5O64Vv0Ya9Z+UCGmkkLFlAQm8DyVzZgwBnvwWH8v1dH1/EaWjSGc7/luO5xBo9obJ7KFN0sBakzLtaE3fn/2bvvsKiu/PHjbxgYQAaRQWUICqIgdhE7KkqsscWaaMxaYknBNdHNRpNVv/mJu9FsIslGUiSJJTEaa6JRY4sGe++ighKwAJYBZWgXBn5/ANIGBUQReh/0swAAIABJREFU+byex+dx7j1z7ufeGWY+c8655wBo8AkI4mPHRYR8P5f1twyoazXAZ8x0JrYvbV3lSOXKy/8cye63VjBnaTu+m5gzC8L5FbwzoeB4UOcRwfz8huk/fOfuA+nwfRDLfhuKT+EX0LUPQ1qtYP6hQtuVkwS/HlBwW5OJ/Pxl3me+YU8w4/cUOtaIYH5+o9Ad5oXdOsKBCDU+Iwv1Nrh441NrKQdDLxPg1QBcBjD3Mw0hIStY8I+l6NHg1qgTI3Jv1FE3YPTH87ELWcq6/0wlKCVnsujXeucU0DH4gzkk/u9LQt6blDNF0UT+PcX//g8Jbf/pzL27kOCQ6azXg6ZWA7oGBBLQrZg/lOKuV0nc2cUuQxuGeTxXTIFHeQ8/nJmiKA/sn7l4KRyvho8w4lE8Nc4Fj+Xt6NLNE/hAOfMEpk3fwOwu5VGheHTZc6wt080vOEWOeDKMZ/jfmtkkdviZf7mVy60rTy/lGJtfm0bG5G0M7FCeEzWX9D2cRvh/e7HZZgEBk1sXs2rJZYJHBxDafh4/TPEu9znWhHg0Cvt3v8znlnP4oVNz0+/Px/werkTdwUII8ZRTNWdc13HUS79R0ZE8furWPP/+GzikVNA6x8ZoMuq8wdCxxSSAALEnOXvXm9EjJQEUT6HMG6TZj2Nm22ISQHjs7+FK1B0shBBPPzvdQEZVdBBPiHXTkXRp+vByj4XKk8YjH9JL5TKUr34b+mTiEaK0zOvh36reg8s85vewdAdXRcbLbPr6dy4VO8BZTT3/kQxuLmvVCiHEY1GVPoer0rlWMpIECiGEEEJUQTImUAghhBCiCpIkUAghhBCiCpIkUAghhBCiCqqUSeCdTzex/s0IHrRKlBBCCCGEKF6lTAKtm9XBpWP1Mgd/86MNrJ8cKUnkw0SuYHz3Pvh1K/RveDDHjcD++fTt1oe+H+7LW+kgdi1v9hpJ0JncDQpR24J5Z9QwenQfSN/RMwjek7deZeiHA/HrNpCZ2/KWHopZGYBftz4MCjoJgP7XGUVj6NaHHh/uA+NJgob3wa/7VH6+X62BTR/k1Lv7sV4hIYQQotKqlPME2vZuSbuKDqLKcKDHu3MZ2SjfJrUWt3wrZhkObWT7rU4MrlX02cqJEN6bvxe3MdP5qouGmK2LmBcYiN2XwYzOWYZRXcuWs7v3YejVGw3RbA9NQlu4LrU3AV9MxCffcdUaJyB7FXWtNp7du2N5eYQO9Pv4M9wWrTqpPC6AEEII8UyqVElgwsLf2fH1vewHXXx48SuPAuv1Ji3fybaVtjTqnc7V9TdJSrSkxui2dJ7sjCUQO2s9e9fntv8d4ddmRwCwHtWN/u/XLnkghl28N2QRzu9Oxm7nUtadiEaxcaXf9AVM9dVAymU2fR3Cyt3niUpR49zCn4lTJtLDNXe+b4WoLcEE/biPs7EKanstDX3HMP1d//vrLz5N7Nwa4Glq3WwAVWM6tIjgty3RDB5deP1OhYO/7SLGayifjW6LM+A5cTKX9gewbvNJRk/xBkDd4nk6XtjLn/re9DPs40+lLT3rb2V7gePY4uzRAM/Cy7UaAdQ07NaWO6G7iBoxErv9u4hq05lme7YWCVcxxGNIsURTSyMrCAghhKjSKlUSWGNyH4ZNzh4TGBphuowxOoZbtn747+wCh4+z683jhPn3o0VT0AUOZlhgdnfwvuvN6b/QvUASWTpJbF+6kSEBM1kVqEOJPsIl1EA8mwKnE5IygGkfvYWnfTrnVi1gwcylOH87kaZq4PpG5gWdwnlKID/46kAfwfETCkpJDx29gvHjlhJuauJNlTdTV89jsOk1w8ufSkPX/v4sC97I8REB+OTfZ7zKpXAD2laN85JbVV0aeqrRh18mhuwkEHUTurbZx7r98TTT7wXfydSLKJrAPVD95+l4YiF/RvpjtzuWDsMHoOzZSmKhYgc/GcPMPU2Yvm4e/R7DYtxCCCFEZVGpksASqe5Mg1ccs5O71m7UcookISwVmlqX84EUnHu/xQTfnNYvj050AIhYwcqjdRmzfAx+OV2azm+8wv7hC9l2biJNWwH6WGJwoFf7xjhrAW1b+hXX0maKywDmftMubxxefipbnMs1uYln/d/7sD7fFrXvVH75T29y53a3ajWAfppprNs/Bp/83cbouWMAO41d/mej0dhCuAGDMW+bT4+2BH+/hJUJ0HV23dxe3jwp+5jZvU+BTU3fWMJXw3MeqOrS0w/mrFqB+mZbJrdQ89ujnbgQQgjxTHvmkkBVDRtsc89KZY66GhiTi12r5hFoaOhVuPsTDOERxChhBA3vQ1CBPWr89AqgBq/nGeKxi+AJk/izTUuaNWpC1+7+eJa09U6lwdlDk9MVWnhf6c7iXPBY3lydc0eFuhNzt8zCr0AdRccEqjVOFFzcx5X+Azx49dddxJRxcRl1k+fpcHMqP2vG8IMrnC1SoOiYQE0tHZB7N4gat26dYdxS9EOCaKo2mEwC/T7cQGjZQhRCCCGeKc9cEvjkzsgSdbVidtn35uN1U+lQXEKmbszoL5bQ9fQRjp85yYFfgli26jBzv52OX0la8cqxO9jz1Xn8MCCnI1plh7OJmB84JjCHtvsAOixdyqYr/vm34qiBREP+TlkFgyEJ7DVo8h9L1ZghUwKoV60zbioTSeADxwTmcO3DtHc1JLZqDBx5cMBCCCFEFffsJYEloVKB8XG0DoLG0wPnlH2cjYQOD0qcVBrcWvnj1sqfwS824b3hIRy4AH7tS3CQcuwOVtvrcCuP7mNNW4Z2C2HOb+fzWglVdWnoqUEfHkYM3tnjAo1XuRSuoG3TAGcgPF8Vzu0H0A/A9JmVgANNXxiQ/d/iXl5DPPoUSzRaDepStpoKIYQQz5IqmQTaulnD5hiiI92o95w5KgtVqbtRi+XRmxFtNhL07/k4ThlJB2fQR4VxYGc0DQMmZrf0nd9I8AkN3bp446xJ46+de7mkqsvIOiU8Rm538BOSGHWZcJv8x7fF2V1XqEtYTdNBvdFMWEq44kCznG0d+vvj/O4GgpZ7MNFXS8yOhayLbcCIvt6lC8KYREzEZcLzv042TnjqSlfNue/f4s1f7Zjw7SJGu5fuuUIIIcSzpPIkgYmR7O12hNi03A3H+bXZccCWBsv70aplyauy7ducRvuPc3bYek6klWGKmAfS0W/WfAgJYWXgZILuglZXl2btB9I1N5GyUWM4uoJ/rQpCbwCta0t6fjCdl13KKYRyFc+OTwLYkX+Tui2z1wXSo3BR1z4MabWC+YfyFW01kY/fVQj6cT5vfq+gdmlCv1nT788RWGLKSYJfDyi4rclEfv6iQWkqITElHdROOMqdwUIIIao4M0VRsh5U4OKlcLwalnG0vxBPE+NlgkcHENp+Hj9M8ZZ5AoUQQlRplXLZOCHKJPYkZ+96M3qkJIBCCCGEtAQKIYQQQlRB0hIohBBCCFEFSRIohBBCCFEFSRIohBBCCFEFSRIohBBCCFEFSRIohBBCCFEFSRIohBBCCFEFSRIohBBCCFEFSRIohBBCCFEFSRIohBBCCFEFSRIohBBCCFEFSRIohBBCCFEFSRIohBBCCFEFSRIohBBCCFEFSRIohBBCCFEFSRIohBBCCFEFSRIohBBCCFEFSRIohBBCCFEFSRIohBBCCFEFSRIohBBCCFEFSRIohBBCCFEFSRIohBBCCFEFSRIohBBCCFEFSRIohBBCCFEFSRIohBBCCFEFVcok8M6nm1j/ZgTpxZZIIjpwO7+1W8WaZqvY8vmdsh3n0gwG/7KcG2UN9EESljPhxxlsTX7UihTOnJjB6B+60CXkZb4u26kKIYQQooqxqOgAysK6WR1calUvPoM9fJ7TG81xXzyQhq4qzNWWpT+I8QzLj5+mTfs5PPcowRanxnBec1nOf4+dwb9Lc9RlrUfZxfITR3Fs8wPfNquHulKm9UIIIYR40iplymDbuyXtRtdGVcz+9Lgk0h0cqNXIGks7S1RWpT9G4uXlbMjsw0C3MqdnD6HG16sPRCxnV+ojVJNym9uZjni5SAIohBBCiJKrVC2BCQt/Z8fX97IfdPHhxa88yN/Gl7R8J1s+yu0PvUloywgAbCd254W3HUtxpET2XzmK+rl5NDeRWBnOr2XBwjUcjIhH0bjSYdBEpo1uizZ7L5s+eIUQ1QC6puzjz3AD2DdmyNTpjG6lKViRzhdfixnsik6kd0O7UsRXmBVlyHOFEEIIUYVVqrajGpP7MOzsS/iPszXZCmg7qjvDzr7Ei4G1Ubl44HfqJYadfamUCSCQeZHTt9Jwr+1VdN/dXcybuZTw+pP4fPESvpvaljurApmzLrZAMf2hI6hHLeSXX3/i85dg3Yfz2aEvVJe5F17aNE7fuFi6+PIzKiiAurhmUSGEEEIIEypVEvjEKDe4kWrFc7ZFW+cMe7Zy0NiJiQH+eLrocOsykckvaDm7eRdR+cqpWw1lTCsNoMbthaF0VZ/it/3xhWqz4zlbOxITb5BYljgzEzkTsY9ISy/cbctSgRBCCCGqKkkCTTEqKKhNXp2Ya7Hg4oqnTd42t/p14Xo0Uca8bRqdE/c7f1U6ntNBTFTB1kIg+xiZ2a15pXLjv/QN6cGEUzfo1G4cvmW490UIIYQQVZckgaaoHbEzSyQxrXSpWYFbSIyFdhZ+DIBCYloiWNlR6hGBz/2TzRM2823L59h3eDH7i58vRwghhBCiCEkCTbF0x8sebsQXnSHQuY4OrkcTnpK3LerKVXDR4ZxvXJ4+6jIxuQ+Uq/x1HZzddIVqu8Ffd8Hd0atsU8SoHGnu0Qn39ItEJpWlAiGEEEJUVZIEmlQP37rPERl7lMJzL2t8e9OBfYQE7yI8Npao/SEs3KLHs7c/bvkLnl9D8LowYmKjCQ1ZwnZa0t/XoWBlyac5mvAcvq71yh6qSo0aUEy2NAohhBBCmFZ5pohJjGRvtyPEpuVuOM6vzY4DtjRY3o9WLcv3cF6NBuJ1fhe7EocxLH9frdafGR/pWfD5It4cFQ/2rvgMmcWMIa4Fnq/tNpB6h+YzPlgPLi0Z/eF0emgLHuPOla1crDGQfzo9arRppD28kBBCCCHEfZUnCbRzp/Mx9xIVtRzcjcGDH/F4NQbymtsaPj93kWEdCk4Vo2kylNnfDH3g063svZkwayQTiiuQeZHV5yLxbTuPeo8Sp01Naprf4eL1GyiOz5V95REhhBBCVCnSHVwsO3w7/IvhNncez9rBSXewazyHt+s/yiTRgNqfUa3acOfUy7J2sBBCCCFKrPK0BFYE2zYMK+du5vvsfBnVojwqUtO81TyWtSqPuoQQQghRVZgpipL1oAIXL4Xj1dDzScUjhBBCCCGeAOkOFkIIIYSogipNEnjxUnhFhyCEEEII8cyoNEmgEEIIIYQoP5IECiGEEEJUQZIElqt0DPoEDA+YuVlJTCA+SZb3EEIIIUTFkiSwHBnCD/D7/svcMzO93xh/gd3bjxGdYnq/EEIIIcSTIklgebkbzv4zqTRo681zppbtMN7h9IFL0Kg1LWuqnnh4QgghhBD5SRJYHowJnDoYhtGzHS2cTCV46cSdOMJl66b4Nq7xxMMTQgghhChMksBHZuT2qcOEqxrTqVkNTKWAyrUTHLpqR6v2DdAU01UshBBCCPEkSRL4iJSYk+z/y5oW7T2pbirBS77KoSO3qNm6NQ1sn3h4QgghhBAmSRL4KFKvc/RwLA4+7WhoZ6pAEpcOnSDepTVtXK2fdHRCCCGEEMWSJLDMkrh8+CS3a3vTvp7pBO9e2BFOJ9ejvY8OU/eKCCGEEEJUFEkCy8hw6Rgn7rnQvrWLyQTPqD/HvjAjnh2b4mTxCAcypqOkpWPMekARJR1FecDcgxk5dRRfA0paOkrGI8QphBBCiEpFksCyiL/A/rOpNGjfHCdTGWDGLU4fuIyqcTtaah9tOpjbJ3eyZv1OTt8ppkDaX+z5ZQPr919FMVkgiXM7N7Bm0wniiskCjdeOsWHdBnaHJz1SrEIIIYSoPCQJLC3jHU4dugQN29GilunpYG4cO8blak3xbWxyoGApJBF3OwnUWpwcignn1k1uG8HBqZbpLue0W9y6CyptbYqbnjA+To9iZkutWnLnihBCCFFVmCmK8oCORrh4KRyvhp5PKp6nPI504o7uYs89d3r5m74bODX6MJuPZeLTuwP1qj35CIUQQgghSuJRRqtVPVlGVM4t6N5MZ3o6GIxk2LjQ6fnaOEkCKIQQQoinmCSBpWFmTU0X3QMKqNDUckHzxAISQgghhCgbGRMohBBCCFEFSRIohBBCCFEFSRIohBBCCFEFSRIohBBCCFEFSRIohBBCCFEFSRIoRGHGs/wxvisbDqaZ3q8/wrfvjqVv9z74dRvG/KOF9ht28V6vsQSfL7Q9cgXju/fBr1sf/LoH8PP1xxH8E3R9Md+9FMAZfUUHIoQQoiwkCRSiEMPm+RxRj8Svg5XJ/VG/hbDyTlvmrlzD5t9+YmqrQgXUOlr36oSXfaHt7iP5bufvhC4bg+ejrSb4dHB5BT+fY/zx0zFk2WkhhKh8JAkUIj9jOIfXHMG57xBqFFMkJkYP9b3xqaVBo1GjLpzQqRvz8rsT6eHyuIOtaFZ49u0LW78nzFDRsQghhCgtmSy6LAy7eG/IIpzfnYzdzqWsOxGNYuNKv+kLmOqrgZTLbPo6hJW7zxOVosa5hT8Tp0ykh2vu6r4KUVuCCfpxH2djFdT2Whr6jmH6u/44P8nzyMxi77Z0lpzMJDoVNNXN8fa1YHaHvN8Git7Ikk0Z/BGZhcHcDI/GKiYPsMAj91TuGVm0NoPfr2aB1pxXmsCS/WbMmGFJ55K+uwxGftqYwYbLWegxw8Mr+xhNrLN3x4YqTDhpxkCXLPZezsIAtOtsyTRf8/vrJT8szj9WpLLQ3IJXMGYfx8KcPv0smdy00NIvV9YRdr0FPh1qFwpSYceHw5izW8l5HIjfTgAN/T5Zw/Q2gHEfM18IJFQB0PHyl0sIaFLCa5CP/tAKFny/gYMR8aBtQIehE5kxwrtcJyE3nF/LgoVrOBgRj6JxpcOgiUwb3RZt9l42ffAKIaoBdE3Zx5/hBrBvzJCp0xndqlAUTZ/HXT2BMwfv0bxHddPH0sejqGzR2ptc3VoIIUQFkSSwzJLYvnQjQwJmsipQhxJ9hEuogXg2BU4nJGUA0z56C0/7dM6tWsCCmUtx/nYiTdXA9Y3MCzqF85RAfvDVgT6C4ycUlIcdMlf0CsaPW0q40cQ+lTdTV89jsPbh1RhOpTPvJLzyspo+jmbob2Vy+F6+AslGFn6fQYSnBbPfMkebkcnvGzOY+asZ3w5XoSGTNavT+R0LZryhQpeYnRAqlKavM4sNP6ezJlPFtAkWeBgz+WltOjPXm/HtSBW5p6HcNnK+hZpvh5rD9QzeW5zOwlpqpnmalSDOnPMNN6IfqWbZyxCxO513NmXQzsuSdvn+CgznjpGgbUbdItdPTY8PN9ADOPifYcw0TmXHrE6Frn0n5m77PedHwtJSXIM8yvkQ3g48gufE6XzXXgfX9hE8fy5zNCF83N+hTHUWcXcX82YuJcp3Kp//qzHqKxuZNz+QOZpFfDYkb0Uc/aEjqOcv5JdWaqJ+C+TtD+fz3OJAeuS/NqoW1G2Qxh+nT0OPzkWPZTxJyOszWG8/hh++HYlb+ZyBEEKIciBJYJkpOPd+iwm+rtkPPTrRASBiBSuP1mXM8jH41cre5fzGK+wfvpBt5ybStBWgjyUGB3q1b4yzFtC2pZ9HKQ7tMoC537TDZA+cyhbnwmPRiqGPz4Jq5rRzM0drDtrqKvKHEXvSyB/WKj4boMLDHEDF2B6Z/L7cyGFFxfP3Mvnjqhl9xlvQrjZQ24JJbYwc3l+Kc7lt5PerZjw/zpLOuuxjTO6Zyd7VRvYaVAzMzeCsVQzLbflzUTHMM4MFxzOZ7KlC/7A4cxqg1G4WvNIgu+XPo4U5HqFGIvRkx54j4VocGY7Po6mQMXsGQldsJbH7TGa86J19rrqhBAz4g/E796LvP4AS5PYPP8qerRw0dmJ2gD+eNoDLRCaf3sfbm3cRNSQvUVO3GsqYnJY/txeG0nXpbH7bH0+PAslodTS17EmNvUoqYF0O8QkhhHgyJAksMw0NvVyLbDWERxCjhBE0vA9BBfao8dMrgBq8nmeIxy6CJ0zizzYtadaoCV27++NZ0m94lQZnDw2YbAks+Rm4NlPR5HAG7/0vC283MzzqqejT3BxtzrsiOiYL5WYGb31YaNi/uTn6ZOBOFrHmZrjWytulczKjVJ1+OXUMdMrbpHYyQ5eZSfQdyG3GU1c3Q3e/YjN0DmYokVnEArEPizM3CdSQ16Vqkb1ZSS/4lHQlDdRWFfOHYbzKxSsG9Htm0OPXQvtc9dwxgrYcktOYa7Hg0jI7AczhVr8u/BZNlBHcco6h0TnlXS+Vjud0cDAqFijYImmhtoa0VNM3h6i8mbr6d6Y+ethCCCHKmSSBZWaJuloxu+x78/G6qXQo7gtb3ZjRXyyh6+kjHD9zkgO/BLFs1WHmfjsdv5K04pVTdzC1Lfh4morz4UZORmbyxxaFNWct+PJvFuR2Cqo9LVn3N5XpxC6uBMcoL5lZkEnerUyZFEiCHxhnbhkT2wp3wdvYV8fCcA8DlOsYvJJT0zRgEV8N1z286GM5ej6F31+m3m+kkXo3AWo4SSugEEJUMpIEljONpwfOKfs4GwkdHtTFq9Lg1soft1b+DH6xCe8ND+HABfBrX4KDlFN3MABqM5o0taBJUxjWIJ0RqzM5r4BODa7OZrA3k5OKinamMijHnBa7W0Dd7E2xcVkomJkoXIycOiLiILcfUonLbh3sk6/BSbmXRXQqeFQDyCLiVhZqRzN0gPphcZZCTU9PLNZeIj7nGjwWajVq0kkrnIGq6uJVHzadDsMwXPeQJFTBcCsJxcYWraZ0gTrX0cGWaMJTwDmnNTDqylVw8cc53w8XfdRlYvDOvllJucpf18G5b+HkNJrb19Ko2cmz2A8T5W48BqMlWm3FpNVCCCFMkyliyptHb0a00bPy3/NZfyKamNhozh3ayrf/CSH0bk6Z8xsJXr6Lc9Hx6PWxHN+2l0uqutSrU8JjqDQ4ezTA09Q/d12Jx7NFn0hnyTEjEQlZ6BMy+eNsJkp1M1xzvs113io6mxtZuDqDw7FZxN7O5OSpDBb8lkEsQE1znq+bxe/bMjh8O4voyxksOppVuuuVU8cf29LZG5tF7HUjC3caoYGKzvlvNs3I5KctRiL0WUScyOCnSDM6e2ePEXxonKVg0bIHdTlG5IVSPrE0ajWgoX0sf24+QtStePR3c7NBDX4vDcDx0CJmfr+P8OuxxEScJHR1MPNXXy5Yx91dzBwxkpc+OVLqw2t8e9OBfYQE7yI8Npao/SEs3KLHs7d/wRs3zq8heF0YMbHRhIYsYTst6e9b6OYU/VEio1xxb+9ZzNGiWfmPkQx6fSnHTbYkCiGEqCjSEljudPSbNR9CQlgZOJmgu6DV1aVZ+4F0zR2DZaPGcHQF/1oVhN4AWteW9PxgOi8/4Xnl1BZwfk8GG7ZkYcg0Q+dizuRXLHJurgCqqZj2GizZksGCbzPQZ5qhq2mGt7dFTiuVOcOGWqJfn8G8hRnZU8S0MedkaW4MwZxhwy0xbMxg4aI09OZmeHhaMHeAqsBNEOqaKp63MjLzy3QMFma062HJJC+zEsZZCvZ9aeU3n8079tKrRedS/YGEfz2W8Svz0s6Db/XhZ4D2U9k8v3e+8XXejHl3AHOCAvnbagU88u6cVTefyOeBGhYuDeHtlbEoagecG3nTc3ih/n2DgTTAUVeGW0W0/sz4SM+Czxfx5qh4sHfFZ8gsZgwpOMZV220g9Q7NZ3ywHlxaMvrD6QXvDAYMoZuJcRtJ30bFHMuYRGIKUEuL47MwQbYQQjxDzBRFeWDTzcVL4Xg1LO5X/pPztMQhHiIsnSFrYVpp5gl8iNhQhQlnzfnyLQuK3orzGER/zTdTjuL7/bc0L4/bcR8Dw7ZZDApKJ2DZPAbXenj5UtbOpg9eYZluPj9PaVx8MeNZtr02AcP4bQzxMz1HILFreXPUCpxnLWF2N+kOFkKIp4l0BwtRmOs4XpzchoybxawdXOEUzp6IwPGFMfQr9wSwFG7FYTfwE3oVlwAChhMnifIYypgukgAKIcTTRrqDhSjCCl2PN6iY+3NLQk2H6Suyu5orkq47HYc+uIjmhUA2v/BkwhFCCFE60h0sHpMszu/P4A998SXUziomtZbGaCGEEKIiSEugeEzMaOJrSRmWzhVCCCHEEyDNMEIIIYQQVZAkgUIIIYQQVZAkgUIIIYQQVZAkgWWWRNiotewIuVdsifRTYewdsJ41zVaxpvUeIss040ga4Qu6ErzoLBlljvXxMmydwKdvLyahogMRQgghRIlJElhmKhy6uODsWdy6rUlEfn6ehGat6bVnMC/u9sXdqgyHiV7MH7s88R3WzPRdPOeDebn7JL6NKEPd5UTT4x2a3/mGP0KLT4iFEEII8XSRJLDMrNG90YGm3axN7zamkhQL1VvXprqDJZZ2ZVkzK43INUtIaDvyqV25AgBVM3z61CJs7VppDRRCCCEqCZkiptRSufTaBk4fzn5U4+0+9JiYb8UEYwzHuu8h8nbO4w83sOZDwMqZ1vu7lK41UDnCmdAE6k5uW7YXyrCL94YswvndydjtXMq6E9EoNq70m76Aqb4awMC51cEsXHuE8FsKateWDJk4jQm+DnlVnF/LgoVrOHgxHsXGAedGzxPwwUQ6FEpKa7bvQY0lWwiLHUfHp3eWZSGEEELkkCSw1Kxp+P1LNCSJsFG/c73wbpUzrXe/RGvjHU4M2E3ia/3wG1ZMa+HDRB3jqsGTFg2LX5br4ZLYvnQjQwJmsipQhxJ9hEtkd2FHrZzFP3/RMGLKfGbXt0R/dAVA4DMiAAAgAElEQVRz/jMT9RfBjHYHjGEs/fdSwttM5fPZ3jgqsZw9EQFGE4dxa4az+iuunk2jo64s/d5CCCGEeJIkCXyKZcREk4ATmgd2BeeMSSy2t1nBufdbTPB1zX7o0YkOAMaTrFx1FZ+AJYz2zV7X1bn/JEbvHsPKXZcZ7d4AjHru6MGtRVs8dRrAAT/XxqYPo3JCo00jMjYakJVdhBBCiKedJIFPM2MqYIVFcfeeANioUatssbMproCGhl6uRTfHXuavuwbOBQ7DL7DQM3R6oAGoW9LrBR0z509k/DZvmnk1obW/P37umqL1qaywsIKMMt0BLYQQQognTZLAp5hFjRpYE02qASiuNdBGg0ZlhabYJNASdbVidql0jP5yCRO8inuuhg5TFrGq7xGOnzjPsf0/MWflWgZ/uoiA5oUyU+M9UhPBuob9Q85KCCGEEE8DuTv4aebWjFqEc+vaA8rohvL5r3PoV9rcq5Yr9TR6jp2OfWhRrUdbegwfw/Sg+Yx213Pw4NWihQyXuK13wtmzdikDEUIIIURFkCTwaabthGejBCJPhBdfJnIjc6YHsanIHSoPoW7LiJcaEL40kKBtYUTFxhJ1Zh/rvw5k2dGcMikn+Tl4LaHno9Hr44k6tIsD19W4uTkVqS7j1F5iNN3xbFTKOIQQQghRIaQ7uLT2HOTXN6NJz3186nfWfA5Uq0PHA764lGU6wGK50rxvZ0LXbiZ2zNuYnHklJZrw05epl1L62t1GBPK5OoSQpbMYH6ugttfh1qItI51zCqis4NZeQv5vBTF6A2gb0OGlmUzrVXhM4D3Cdu7Dusd3uD9o/KIQQgghnhpmiqJkPajAxUvheDWs+Ls9n5Y4njjlGJtfm0bG5G0M7PCUTr1yfTHfBeyjRci3tK1V0cEIIYQQoiSkO/hpp27N8++/gUNKdEVHUizDHWuaTJstCaAQQghRiUh3cCVg3XQkXZpWdBTF07QYSceKDkIIIYQQpSItgUIIIYQQVZAkgUIIIYQQVZAkgaVw8dIDpmoRQgghhKhEJAkUQgghhKiCJAkUQgghhKiCJAl8FlxfzHcvTeCEvpj9Rpj/N5i6/4lGJR5AOb+WmaOH0aNbH/x6zWKHUqiAYRfv9RpL8PmCm/W/zsCvW5/sf6NCOGd8YiEXdQ36DoKf7zy4WFbELyS89wo3X32Rm+PmkJJaqEByKAnjJpF4seBm445Z2c959UVu/mMxSkWea3kp5lwrs8xds7hVEa+P8SzbxnRlw8G0J3zgslFWTOLWvO1kVnQgT5PoFYzvFcDPpV3xSpQbSQIrvXuELfkGg/87NNeaLhG3Eb5Ww9u+ZTvCzY82sH5yZN4qKRXiHueGrWXH4qQKjaJ8xLMpZCnhjQL44dc1bF43ix6FV1pR62jdqxNehdaE1r44j9Ddv7P5XW+eyOIsEUt555MjpvfVgbdbw/wfoHBelyee5FXLyaj/BtqvfqJm8AysrQsVsayNZceOWNQouFnVI5DaP/5KzfEtMHu0s3h6FHOu5UlZNpZb/336k42so/O4NelTUsuaPKqa4fuyJ2HfL+Z2uUb2eJjX64hV87qP772cuJ34cZNIjHhcB3iK3N3KO73GEvwM/ZiqKJIEVnaxa9kfWguffs1MT/pohCWrwHsA1HvCoYliGGO5cROcW7TF2V6DRmMinVM35uV3J9LD5cmHBwrHV4ew6aIh36ZoQr9fSuitgiV7DwS2wNbEYqoyxpF5B1RerbGws8W8mrrol6BlI2wnjcOm6JLUz56qdK5PgMZ/JJ4xS9h/4ulvDbToOI7q/Ro9Oz9oxDNBJouu5BL2bSFW14N+xSULl+GXqzDWVCugMYnoz45w7pc7JCWDpVN1ao9pQ8eXHQCInbWevetz2/+O8Guz7BYh61Hd6P9+7fvV3Pl0E6EX6tOux13CFl0nIQGsfZrQOaQxlst3sm1NTfzXtKSGCiCec8P+4ObAPviPtr1fR9KeM5z+OpKbF1LJtLOlRrcmtP7QnerGO5wetJNLkTkFL2xizacAKlw+H0TH7iVcrNkYS2jIZ4RsOU9UCmhq1cXnpWnMfbHB/SLK9X2EBC9l+4loDCoHPLu8wrQpA/C0yS0QzY7gIEK2XeaOpi49R3oT8/U+PD9bQkCTksRwkqDhM1if223/yTD8PgHUbZn9W2B2a6BxHzNfCCRUAdDx8pclrLsAA+dWB7Nw7RHCbymoXVsyZOI0Jvg6lPD5apr5enP2+7m8l5JGzM0wZk63xPmFsYwpvCpMM+iqhpUH4MVe+c/1NPemzCL1bs7j717h5neAZWvsvpqNjTVgPEDChHko6QBO2MxahJ1Xac81CWXL1xi2HcOoTwen5liP+DsaH4cSfdkadgYx56iOXoP60MPL9PXJ2DSV+D/rYF3/JsqZq2TihOWLf8e+V/18x4gj6cPJpDWZhk3yZpL3X8CYaYtFrxk4vNQIs4ecq3HXLPQb6mD/yeuoc9/SqQe4O/ULssaGUKO9LcbjP5K46QDpUTfJMlqi8vTFZtQkqrll/4hIW/QKd0NzW8oXcvvVhQCY95qP4+jc5OPRrhdA1o3tJC5aTlpUEtTpSrVGhQrEhZK4fD1K+DWMyWDm3Bzrwa+jae+EGZC1dw63vj52v/i9MaHcA3B7Fe2/h2MBDz3X+2w64+mTwLYdR8ho1bnkX2jXNzInOBqvFwbQz9cVjamPEeMx7r45j0zfFzG7sIN0vYJ5vZ7YvjEO63y9LlmnPuX2F+nY/r0ByqpNpF9LAm1rNLNmYKOF9DUBxP9yLbtws8nUnNEzr/Xlxmr0/9qPOjAITZ3cjfEkz5tEsm4WjmNbYGa8QvJ3i0kNu5z9mtnXwdLvVTSDW2OhAm79gv7dxWTktKimf/giKQCqFmgWBlLNLud0Tq0mcdUm0q/Fg6Y+lr3HYTewBeW63P3DpFxm/ScLWLrnKgZtAwYPci2433iZTUEhrDsaQdQtBbW2Lj4DxjJtVFu0KiB2LW/mGwZz/PU+/Ayg8mb6unn0sy9BHfkY9PEoKlu09lV30XtJAiu1NK6ePg0NXqdmMX/JcWfgoiN4Oxbdl7rhOMd+gUaf9sTdTUVq1E1i4vI6kXSBgxkWmN0dvO96c/ovdMeymEiMZy8Q5tCcVj+3pYZVKncOJxVbtshzDx8n9J0orMe1pvNHjlin3eP6ytskG6G6ypEWG1+iBfc4N2w7Mf360GOc7cMrLcSwLZg5W2Dih4voWQcSr4VxMH+r1t0jBP0jiEvtJ/Lvb1qiVS6z6fMg/hmk5ccPOqEBwn+cy7z9TgR8vJAOmqusWxDEcUVDiVe0Vnkzdd3vTDWGETx6OlEjf+Lj/ppCZToxd9vv2WMChywt9XkCRK2cxT9/0TBiynxm17dEf3QFc/4zE/UXwYx2L1kdape2jBhjIHhOEAejtTQNmMWYXg3QFC6ogg4e8P9OAvmTQFULqgf/SnXjBRLfm0VG/yU4+Bd63VQdqbH41+xxcgE/lulc0zfN4e4OW6qNmouVm5rMUz+T+OUckj8MwrbOw5+vadSOhvvXsPDvK1jg2pZ+gwYwpLs3zjYFy2XdOEh65/lo36gPkauJ//ccEp0WUb1l/i8PBeOuH0l74XXs/9cIVfIVUq9qspOrh5yryscPi+WrSYsAdU5ymHV2P4qxBZrm2dcty5COquNrVBtXB3PLJNK3fIHh00WoPp6MlTVYTfqJ2pOyu4Pvxo3C8Z89i3T1POr1wngFw2eLUHSjsP93R8yu/kJiyGmy7OvnXatEA9Tvi2ZgY1Raso/x9RwMtYOxcwezzrOp3Tm7O/j2IkvsvvoH1oU+vx52rnmsqNvIk9Tfj3Hb2BldSTMabRN8XU+yImgyIf9rgN8LfRg6wJ+mtQonAwrpp+Kwm7WEGvbxpIRMJzHYAYtZgwp+eaafJnmDBttJwdg/B8bzp8nM+QC0HBZM7WHZYwLvRhWq/rmOWNVZRdrRa1An5wW4e5S0CFusBuYMg0g3kKVujc34cVg62ZIVd4Ckr+Zxz3Yh2hecoNYgtEsHZXcHT1mNxb8WYedR6HpeXExC8FEshk2jRisniDtA0qJ5JNoFU8O/BD8Oo1cwftxSwk113au8mbp6HoOLGY6U/1oeDJ5J8AVvpn4xCx9OsWxeMOHGunkfHcZEDOq2jJw+kabOtijX9hE8P5A5mkV8NkQHuqF8tXNodnfw8BV4frGEgMI/HB9Wx/1yJwl5fQbr7cfww7cjcXv4VXgmSRJYqcWREJOGppVTsS/kX1cBR3Ay8eGoxCVBTWecW1fHWgXWTu6UeaiShRMNZ3ngaAdgS+3u2V9cDx/Bl070skhSO/vgP9mV7M93WxrOci5rJCbduaUHbTt8WujQqkBbS1fgjz5m509stxnAd1N646YC0DFh0km2v/8HB1M60UMdxrZtsXgOncPg5jrAlYDXTrL93WLGy1UU40lWrrqKT8ASRvtmp2zO/ScxevcYVu66zGj3Bg+pAEDh3LLZLAxvzMhXBxB1yJX+yhpmTtUwZFYAfoU+7J1qQ2wM3AXsTdb3mBhPk7L5KpavhmDbJifB7PEaNocnkXLwCtWG1X9465ZLJybM6sQEQzQHd27lt43z+VuwFc2692bIoAH4eeSkvdU6UC235c/9RWxarscQeoyslh0LHqNuv7zWFetG2Dz0izGHfRusvBaRfOgCGq9GmKGQdugYNP871tWyi1j4jcMu31MsBvck9c9NKHFgVZJvsHK4XlkR20m7VQebfwxC7QQ8Nw7bUwe4m29slplH34JJiP/LWO2YinIhHtxL1hpdmnPV1HKC2GjiAR0lZNOAHm/MosdEA+H7t/LblrX8c1QIjm38GdJ/AD19Xe//4LHwfznndXTApr8fKbP+JPXaoHwtdwAarIZOwianpdKiZUkX0qyDVds6JB86QPqg4VgCxuOhZNh1xDY3ubFuge3YFnlPqTWIau1/4W7YRbJecCpBC24SqVu2k9V+BtV75SSWtQZh+/yfJOw9QIZ/34cnAi4DmPtNOwym9qlscS7JH75yhG27k/AJCKCflwbQETByL9vn57ujUe3Ny1O88x7rhjKmyxrePhGGMkRXsnHQ5VFHFSJJYKWWRnoaWDzgXZ2iAFZgY2Jf9d7uOC4/xa4Bt6nVriaOLZ1x7VsbW6vSR6Jyd8xJAEvJGE9CONiNqk3h+wXKk1u3PjRbG8zbo0/i06oJzZu2pWd3b7Q51y4q/CpKZBh/676i4BNVjUm8C2iiidKrcXbN9zXj5ko91VOWBMZe5q+7Bs4FDsMvsOAujU4PlCQJVOPZfzqfax1QRyxl3VEtPsOn49MrHoOJD3sbNZCWfXPIE00Cb18hw5BERvAr3AwuuMusZnzeg7tbeW94EAdz7sD2fG0R340u1A2lcaXDixPp8OJEYvYEM3P+UmZeUPjh2zG4AGZaJ1T336BqVE4OcOYaRvJ/iKox92hUxoHWDli1b07S+j9JH9UIdfox0s6Cenzr+1/yWTdCMSz/mbSL18hMzXueRfF35RRU0uv1AFlxcWRa1kFVM3eLGlU9J8zyD9BPvkLyisWkHL2AMTHvtneLtklAyZLAUp2rygqMqdndoYV+7J4LHsubq2NzQu3E3C2z8MtfRqXBs8tQpnYZSkDkVoLmBBM06yqsnsdg++zzM3fKG/pCTVfM2YzxJpA/CTSvg0X9sqUXFu27olr/J2k3hmP5XDxphy5g1moUlvfjjEfZ9D2GP45hvJ1EVm5rXLM0MoueclHGq2RcTSIzbha3dhXa95yeTBPXrQiVBmcPDZhsCXxYADluRROjaGnmltefoKnvgbPqcL5C8RxfuYiQjUcIjzXk3XHeRkGBEiZwJaxD5c3U1b8ztYThP6skCazU7LGrAal3E4otoasBJEI8UGQsursXflvrcHNPDLeOx3D144tc2ulDj4UelLrD1UpVss8CI6Y/SB431wF8trIt5w4d4djpw/wWvJale6by3X96k9vmqPadzub/+Jv+oDH5E/gppdIx+sslTCj1+Lo8am3Ol7W2JT3b5yS+9g5Fu4OBhASwqvGEE8Bc5k7YfLgIuwd1c9t3YsbixiTmvO/U9q5FyyjxnNu9gd+27GL7uTQ8u4xk+tCBuAEZAJlkf/nmvsmN6WSZOJSZ2sSNLyWkatURy2XZXcKWiftRaI1ds5x3o/EKhs++IK3uOKp/3ANLrRqz5O0kBCwv3d9TSa7XQ5iprAqco5l5wS7xtB/nkHSlDZoZM7B2s8WMayTNmkqJb90o5blmGO6BxvS4Ps9X5/HDgJxEVGWHc5EyCjFHd7Fpy+/8tv8yVo38mfDqQHpqyTtW/tusM9OAdIrceq1SU+LxL4U5dcTKbTlph6+R5R+GEuGA1eC8G0iMe7/g7q9JWL/xMTVa1sFcBcrySdy9Wpr5GtRYjMrpPi6LcukOzo7DqkASXjCxM2xbwMwfDQz5YAH/bZ/9mp4LHsvbkdkJXEmURx1ViSSBlVptnOs7kRp1FQOY/IKu1xCsVsFFBRqZym6q2VK7twe1e3vQqN1+fnsvhpvJHrhXy1dGpQJj2TI3dTUVpBnzfXankhSfry6VAzU84a9jN0kd7f7A1kBzFdwf/VwWNjqadhtA024DGNFqPoMC93IupTfONuDmWRdWnOR4ij8dTDWb2rjiplU4Gx0LvjlJUVQ0fxkp+ZjA8qS2BEUp+sVay5V6Gj3HTscywavEnWPF03rTr8uDi1y4Co268Nhacs1UlpCuFE26tHWxqBZP+oU4cH/Ql5sGrYsGk99RsUdY9uNaNu0+SaK9Nz0HTOSrDzvhWSijzdJfwZgM2X2USRivxWNWu075Dqq388WqySKSDh3DIvkYtPx73vg3wwUybjlg9WZf1DknknXjGsZMEw0xKrXpxLDE16t4Zk5OmKVew2jgftZvjIsji9wxgTdJv5KEqstwbNxyfkqmxpFx29TXr2XRZApKd67A7ahwqN+XWiZ2qu11uJn6dZISzY4VK1i7bR/nUnT49RrAjG8C6eBa+FNUwfjXNbI6ZneVZ924hpE6WJXDn1YeJ6za1id5/wEU+zDS7TtSLV93ujHiCniOQuNT5/7NPRk34k3+CMl+QqHHqrpYuEBq2EUyX3AqW0t1eXQH13LFWa3nRowCXtlfRkpMLDH54r10IQKlxVhG3O+ON/DXdb3J5E0NmNpRmjqUu/EYjJZotaa+PasGmSKmktO17451+F6uppjeb+0N3YCDYUX33Vt/inPrY0i4nkrq9Tv8tSOe9OeqU71Qd7CtmzWExRAdmY4xzViqlgfLxg7Yxt0k+lQ6YOTemghiCvQ8WeI62h3rvSc5/PU17lxPIinyJpGfX+RmgePYYFsHEg9c5068MTuOUojaEsK3W04SFRuPPjaM7XvCUHQe5N5s6Nx9GH7sIug/azkYEUtM9GWOb1vB/P9tJQZA1Zhe3XWErw1m/ZlYYiKP8O33uyhufu7HTePpgfPdI2zfHY1eH48h9/VXt2XESw0IXxpI0LYwomJjiTqzj/VfB7Ls6GMI5A7s/gu6lXEOyhJxq48q8RipB66RcTc+r3vQsjU2vetjXD+PxL0XyLgVR/rFAyQtn4fhbMmqNpz+gwOGBowOXMIvy+cxdUTRBBCA9DMkL9+OEheHEvo1yedtUXcq7/kLbbFq15ysQ9+TfBzU7fK6gqlWB5VdPOlnrmR/+SdfIXnNdpO/zcxrOcHVY6TeSCIrnbzuw3K4XmYePbFyukDq5gtkAllx20neH5evhAMqnSXGi6ezf68Z40lb/yNKsonKajmhMl5EORFHVrqSF2cpzhXCiTyRgK5DJ5M/got16wi7z0DH1+bzy+pFzA0YYCIBzGYMXUzSqWtk3DhG0qrtZLp1xbokN9GUgkW7jqhubMfw2xnMfTrm6woG8+fqwo3T9++0zzi0mJTzJlKaak6oqsWTfvw0xtR81xNbrPv1xfzM99xddQAlLo6MqNOkbPmGu1uuFJ9M5qfS4OzRAE9T/9x1pu+uLkzdlv7dNBz8dSNRCqBEs37dkQKJpXMdN7hykuM5H6wxu0NYedTEuWqccLbXc3zfSfQpSoGJyktcB9Gs/MdIBr2+lOPPwkT0ZSQtgZWcRdshNLcfz5mD92jsX71ogRowtitM3Qr/17Jga42qmpE7IceJ+CiJdKMlti3r0HpBMxwL/UHb9m1Oo/3HOTtsPSfSik4R80CNmtBi3G2OBmwg2sEWx95u1Kl/M3tKiNw42vng95klp78+TmhIKlSzpUb3JrQuEIclLm+05Pr7ZwjtdgajsXRTxKhtFC79+Bnr/heLwajBrak/U//fSDxzn27fiRmfTWfZ1z8x7+8h6NHg7OKBT98x9weoe46ZyYy7QSx8byzBNg3o+WpvfC7uK9l1KKHwr8cyfmXs/ccH38qZAqH9VDbP7533Rec+lBljIpgTNIlBBnAeEsTPUxoD4DYikM/VIYQsncX4WCW7NaRFW0aW7702AMTthoP14KPGpX+usmISCZvyJRCBOVNbFJpGw8xtMJrBV0hcFoA+ueCUJ5YDZ2NvuRjD+jmk3k4HTW1UjdpgU3gqm2Joek3nq14PL2fm3BVr6x3c+9dCsizrY/nSbKr7lHzQREnP1dynG5ZLPkWx9MO2Sb6me8sWaCa9xL1lM7m9VYO5nRPq3n2xvLijyLEsOo+i2tkvSPrXKxjSy/d6oaqPZsrfSVy0gDtvKphpG2HVsn6+MYG2WI/+OxlfLyb+zeWY2Tlg0b4n1q6Li0w2b+bWj2q9LpK0aDK3kpW8KWJKca5EbuZ0TGd8e5jo4n8Q16HMDSpJQTVq/9ZkLH+P+Lh0zLz6ogkYVPIvzuRQEgI+zZkaCPKm7ik0TVCtjljVX0xShBM27QvOJWjh/zqaq1+Q9M9XSLLVYF6/J9YdnUgu/AtU1YJqr3bl3opA7mxSCkwRY+Y1Dvt3NBjWLObuljiwdMC8XnOs+pV8aqBHp8YnYBYTP1nA28PXgEaLT5e2uJ2Ovl/Cuf9bzLgSxIJxw1hgo8G5aW/699IREluoKpU3I97wZ07IbAatVApMEVPiOoxJJKYAtbRFvvOqEjNFUR74Q+DipXC8GlZIh9dTF8fTEIMphs0T+GZzJ8YvHGf67t6/oO9bMOYHeNnEVDGijAxbeW/ICtxKOk/gs8YI/+9vEDcJvuxW0cE8PhmbphK/3xeHnDnsxNMijfD/9mKzzQICJrcu/9cmZ57ArEmrqdGmvCsXFS52LW+OWoHzrCXM7ibdwaIS0/SeTV8/a+LvFlOgHix4B7j5BIMSz76boBsE/9etogMRVZIxmow6bzB07GNIAMUzz3DiJFEeQxnTpeomgCDdwc8GlSuNX3pwd0ijXlB4Yn8hHokzvP5SRQchqiyVJ41HPn09M6Jy0LwQyOYXKjqKiifdwZUsBvE0MnBu3Qq2XSt+AgK1Zx8CXijJHH1CVIQklG2rSIt9wCQa9Xqi8SvBBNxCiEpDWgKFeGQamg6ZSNOKDkOIMrNF3WucrKYgRBUjYwJLQVoBhRBCCPGskCRQCCGEEKIKkiRQCCGEEKIKkjGB5S38DNuGhXHPCKgcaLqxJ41LOY+pEEIIIcTjJklgefNsTq9TzSHyDDuGFZ6iXAghhBDi6SDdwUIIIYQQVZC0BJaBMTqa0x+fJ/rwPdJV1tTo4UWr971wrFbiGkhYf5wTIddIuJ4JDtbU6NaE1h+6c3/13+R4Ln96nEvbEkhKNsfWpw6NPvDB3b0KL3IohBBCiHIjSWBpxV/j2MRj3OvsTcefa2ObFs/l/xzhQKAtvT+qg2VJ6oi+xNG5Mdi+70evbtYYb9/j1uH8y6sncfm93ZxNrk+rhW1xdEjn5tIjnJxyCts1PtS2ekznJoQQQogqQ5LAUkrafJHr1Tzw/8CdGioAW1q8E0N0QCQxyXVwLUlr4G0Dqdji2sUR25pATVuq51/T7UIElw9Up/Hmlrg6ZW9y/0cTYruf5OopH2q3K/fTEkIIIUQVI0lgKSVcuIcx/A47WoYV3KFyJDUeKEkS2LQ+7o12c3rY78R2dKRGMydc+rriWDN7d3pYPPfS7nC6+ypOF3qq7rYRkC5hIYQQQjwaSQLLQNWtLf0Xupes69cUK0eaLhtI3WMxxB6PI3blES4tvUHHNR1wccg5hoMrHXd3QCf5nhBCCCEeA7k7uJRqNKoOYXHcSX5IQbUFYCQzrZj9Kkuqt3Ol4Rtt8VvektoJMVw/m73LsrED1skJ3Awvx8CFEEIIIfKRJLCUbPt64cJ1jr4fxvULSSRF3iF24xkOfxTBvfwFdTVwqJHE9fXXuBeXSmq8MW/fqYucCInkZmQSqbfvcXPjNeJV1anhlrO/kQcNO6Zw+f2DXDocT9L1e9zZE8Hp948THf8ET1YIIYQQzyzpDi4thzq0XpzJuU/Pc2L0GVKxxNrVgdqDm2CTv5zKmaYfenBg7iG2LTNCo8b0WtM8ewqYairSD1zk8LLjpN4Dy/qOuH7UgYb3VxaxpcHH3eDzU1x+7w9Ox4OlS3Ucu3iU7MYTIYQQQoiHMFMUJetBBS5eCseroeeTiuepj0MIIYQQ4lkg3cFCCCGEEFWQJIFCCCGEEFWQJIFCCCGEEFWQJIFCCCGEEFWQJIGlcPGSTNwnhBBCiGeDJIFCCCGEEFWQJIFCCCGEEFWQJIGV1e0M3pqTxk83H140+nA6b81LpdfsVHqFZKB//NGZdn0x3700gROPIwDjWbaN6cqGg8Wt0yeEEEKI/CQJfNYpRpbsyETbTc3KD6xYN8YCbYUEco+wJd9g8H+H5o8jAFUzfF/2JOz7xdx+DNULIYQQzxpJAp91hiz0GdCkvjlaazM06gqKI3Yt+0Nr4fP/27v36Kiqu//j77lkCDByCbdJIwlIIhBAR4oRFSM3IaLgBVDAn4AXWP0RHhT6VGgXpT5AW6H9gXYFLwQpaHIO+EsAAByZSURBVOVSQBRUkCpojJSbEhWCmFDIIM+MIBOQwYSTOZPfHwmShAQSDJchn9da/JE5++zzPWeyFp/svc8593S+aO8qdPYaToJ3EZt3ajRQRETkfPTu4KuFP8j0hSZ+dwQz+1px+op48mUTT6hkc3ZaIYsAWttZNubMaGDu+lM87bUxrWMxizJNPAFwxtmZ/ZidWMDwmyx6N8jG/cUErBbiO9oYP9BO/OkwaYRYvy7Ikj0hfIYFV2srowdG0Lt5+fKOfboOn6sv98RUVnsWr/0tnTe37sNPUzrdMYTxEwbTyVmy2bsslUffj+WBDj4yth7khK0V3YdPYsqD7SiXaev3IKHrMTZ8sJ3gTT0q/eU2AvkECiJwtnByufKwiIjIlUAjgVcDv1k+AAK4IljwbCQbnrYTb7cwekIkG6ZHsmHM2dPBhtdkUZ6F8WPr8eaUekxLspQEpB9N0hYGyWpkZ9q4eix40o7bbzL1bZMAAMWsX17Eou8tjH7EwWvjIxgdFWLOP4rIDpY9wikOfvkltOtMc1vF4n2snjGNZYfdTHpxEcufH0ubnMX85q+byq1dNPZ/Ss6143n9zZW8NbMH3oVTmbvVqNBXPVp3SKBw12d8b1Z+qbb8dRT3D5vJv47X5AKLiIhcfRQCw5xxJMj0RcHyAbDGLIy4z05iIwuOSAuJnWy4AF+WycZIG5MG2khsbsHlsjG6rxX2mmwzgENBVu63MGJoBL1bW3FFWel9t52kH0Oszyvb/3cc857C2aLV2aNznk28szuKe/7vGJLbuohu34uJj98Om9/n32VToPN2HhxaMvLnaD+Y4d2K+HjDdirGQGeLVuDzkH9B10FERKTu0HRwOAsVs3J1ECNooUcrywUGQHC0sBIfefbnHm8xxuEg454Nlt9gteL/EQKHi/EFQ6T9tZC0CvsmBYoBS+lPpyg6BfbK5l+9Hry0pk3bMvVcF08cazngg9PDlo4WLuJ+2t9BdEwUxg4PR7md6LL92eqBWUjQBM4adYTkZ9eQUdlFEBERqWMUAsNc/G0OxhLkmXeL2BjnoHejC+jETpXr4xwJEbz5qK3S7QGABjZmPhNB0jnHlBtzTRMoPH7sAoo7wygb7MyKY4AlgoEfwBmLs5IAKCIiImdoOjicWS0kdbaS2NPOiGYh0lYH8dVi97HRFvCGyKo8b+FsacFVGCLbe76eWhJ9XSsKvz1YupawjOhYojnIAc+Zj4z/5JKHi1+4ynzmyyXvp50DfOPx47g2lmYVuvs+Lweu60yLqkJgIB//kUBJoBQREanDFAKvBlYrI+6zE3swyJzNoVrr1uW20cNqkrYiyDZfMb7vQ2R9EWTOO6VhM8bOkHawclURa/aF8B0Lkb03yKIVRWT+WKGvW/oQmZPJwYIKB4ntxb2d/Lyblk7Gfh/evZuYu/BTuKUXd5a9g8X4gsUvv0+Oz0fOunks29GQO/vdWGGEMof9O4/h6n57lVPjuxeO4/5hk1jmqaKBiIhIHaHp4KtFSzuTeod4emOQlfEOhrSshT4b2Jj0OCxaF2TOgiD+kAVXcwtut700ZFlIeTgCNgRZucIgrRCcjawkXm+jR4X5Y/vND9Kl8RN8teUHOvYqO2ft4oHf/56jc9OZM24VfpqScNso/jKhf7m7mB1te3FX/fX85rG5BOq3I/lXM0m9pULU2/8eX3p7cFvf2CpOyOBEQRE4WtGs8c+9OCIiIuHNYhhG8bka7P0mh/bXJ1yqeq7oOq6EGsJZ4L0neeW923ki7TGa1GA/77JUHv2gB68uGE5cla1OkfOXfrxXfw6p439Z+V835j7mjUwl45bneH2CW88JFBGROk3TwXLJOPtPY0ByJPkX4xl9pofgtb9i8OgqAiCAL4tdx92MHK4AKCIioulguXRssXR8qKqp2p/bdwIdh59nlDZmMC+9M/jiHF9ERCTMKATKFS962Dw+GHa5qxAREbm6aDpYREREpA4KmxB4JdyQcSXUICIiIlIbwiYEioiIiEjtUQgUERERqYPCKAQeZc3aO7hl4QAefvdldhRe7npEREREwlcYhcBmDBr4CZ8MfYr2/jf4+zdHL3dBIiIiImErjEJgCcc13ejWBL7/8fvLXYqIiIhI2Aq7EAgOsMK5X3YnIiIiIucShiGwHvUsQMi43IWIiIiIhK0wDIEO2kT9gu+/3cTmkwqCIiIiIhciDEMgtHc/xSBWMPEfd3DH+vdRFBQRERGpmbB8d/DerBdYwyDmjniK265xXO5yRERERMJOGI4EGhzw/y/Nr01RABQRERG5QGEYAk9xqhiwKgCKiIiIXKgwDIEGhMBhudx1iIiIiISvsAuBxskv2XEMmjdofrlLEREREQlbYXRjyFHWrL2fP35XjzatHuE31ze73AWJiIiIhC2LYZz73Rt7v8mh/fUJl6oeEREREbkEwm46WERERER+PoVAERERkTpIIVBERESkDlIIFBEREamDFAJFRERE6iCFQBEREZE6qE6GwMN/XsPq8fsputyFiIiIiFwmdTIEioiIiNR1YfTGEICT7HlkPQeTbibhxxy+XnOMk6aVRiNvp9/4lgAUfvIVO9P24/u6EJo3wvV/unLTYy2JBHy/X03m6tPjf9t5u/N2ACIf6cm9v20JmHh+/RY7r7mN+56NLmn2/V429c+l2Wv3cEOn0l1P7Cez51fUf9ZNxHtfsX/bSUINGhI7ox+/vON7PuuzmZNDOhO5LRfv14UQG03nv9xCu7a2Gpyrj+XjxrLhpsk8WLCW1zZk4zUbkjB0Gq8+3hEA/9alzFm4hi25+RDVju6DxzBlmBtnaQ+B7FXMSVvJlr35GPWbEt2hN6m/G0P3qPJHMgL5BAoicLZw4qjhNyIiIiLhKcxCIIDJyZXZHHr8RpI/bInjxDG830SUbPniczKe8XLN0zfTq0cj8Hj4cuqnbLumH8lDGuKa8QBDZpRMB396qAv3prUl4oLrKOLbl3Jo+8wdDHi+IeZ+L0d/Glg1Ofz+D9y6IIWkJifZ9+sP+fJ5D7Ev1PR4Bt53FvPx8HE8vyKRZoF9bPlPw5It2ek8NWM7CWMm8+otLvj2U+bNmsl0Zzqz720K5h4W/3ExOd0m8sI0N80MH7t25oJ59lG2/HUUUz9JZPKbz3FP4wu+ICIiIhJGwjAEAh3i6fZYNJEADZoR2wqgCM/C/RgDbiPp4WhsADEduWFoHpve+5aTQ9rTsFaLMKk/qCs39GwEQESHa4kp+RiAJg8mEtPKBjQitn9TvkzLJ99sS8uaDAYCRsJApgxzEwVQvyPJLQACZCx9nxN9pjLlPnfJ6J1rMKkDN/LEh5n47x1IlOnnqB/ibriZBJcTaEpybMdaOXMREREJf2EYAm1Edm5aEgDLMn/gWI5J4YefsHp5hW1tCyk0oWENA9i5RdCkU9Oqa2x1pkKrwwY/GoRqfAwH0e0Tiar4sXmQvf8J4P9kCn3frrAt1s9RE6IcN9LvbhdTZ43hiQ1uOrdP5Je9epHc1lmxN5KfXUNGjWsTERGRcBaGIRBs9aqaVLXR5JkU+o6sxTG/SqZPTx/LVrtDi5VyVHmuDjqlzueloa4qtjvpPmE+/xywnc93ZvPZ5iVMX7aKB/7ffFK7aOWfiIhIXXf13B1sa0STBDj52WEKz9vWBmbl6c7mAE6ZZ7JffuH5+7vUbK1pfx3kfbmHwHmaRsXfTN+ho5g8dxYj2/rZsuXg2Y0C+fiPBDCqDLwiIiJytbl6QiARxI5qiyMzi3+neTjqOckPXx/G89p2tr12tFzLhnGRsMeLZ38R5imzzGifjSadmxD6/Ft83wPmSTyLv+Vk8FKfy/k4SX5oIM22zmfqwk/JOeTDm5tFxop5zFqxr6RJQRbL560iI9uD359P3tZN/PuQg7i4Vmf1tnvhOO4fNollnkt8GiIiInLZhOV0cFVsXbuS/HwEX76cRebfCwk5ImnYuSUxFaaHGw7oQofNn7NryGp2nir7iBho+ICbDtu2sGPAanbGNCVmSDTNNngvx+mck6PLGF6Y4SRtcTpPLfNhOJoS3cHNXUNLVxDa6sGRTNL/sBSvP1DyCJmHpjKpX8U1gQYnCorA0YpmujNYRESkzrAYhlF8rgZ7v8mh/fUJl6oeudTMfcwbmUrGLc/x+gS3nhMoIiJSR1xF08FyQXxZ7DruZuRwBUAREZG6RCOBIiIiInWQRgJFRERE6iCFQBEREZE66LzTwSIiIiJy9dFIoIiIiEgdpBAoIiIiUgdVKwR+/SpE3QGJj8ILey52SSIiIiJysVV/TWABLPod/LY+7P8TRF7kwkRERETk4qn+dHB96N4ZTn0PvotYkIiIiIhcfDVaExhpB8yLVImIiIiIXDI1uzHEgUKgiIiIyFWgRiHQFQeuA7B810WqRkREREQuiZpNB98Gf7gNZj0BDQbARxoVFBEREQlLNXpjSOFm6Po7GJUGT3XWHcIiIiIi4apGI4G+PPC1gYcVAEVERETCWs1uDDEA28UpREREREQunRqFwMIgCoEiIiIiV4Hqh8AC2LIH6jUH10UsSEREREQuvuq/O7gPzP4Opjyq9YAiIiIi4a5GdweLiIiIyNWhZjeGiIiIiMhVQSFQREREpA5SCBQRERGpgxQCRUREROoghUARERGROkghsC4wYdajMHHzhXbgY/m4QTzxhqc2qyqxfylP9EkhuWcKyX1SWX6o9g9xpfnoz3Dri1B4uQsREZE6zV6dRpnLC5m+++zP3QPqMbs7bHvbYHqeldnjIkgs7dHIK2Lc4hCJwx1MaldM2hyDNT+U7miFqJZWUu6MYHQnS+mHxXh2Bkn7OET2sWIcUVZS+kQw9vT2nCIefN0kUNra0cBCfIKNsXfbSWwA/s0Gw9aHqjyHpMH1mHmjpcrtPykMsWZdkJV7Q/gKIaqJlcQONsam2HAVmjyXVkSu28GCvmXysz/I0y+aOO92kJJ7ium7IemBesy8qeR4vgyDkR+EiPplBMvus7Ft1SmmfnHmyTzORhYS3XbG97bhOt1twGTJ2iBr9hUTwEJsexvjB9pJPP2Qxr1FPLi0mBFPOxjS5Nyn9N1aeNkBm247/+lXzklc917c2faaC+2gam2H8+qHw8GzlCeezKz9/q9APR+Fpk/AsiEwuuXlrkZEROqqaoVAAGJszL7XhrPMa+OcjUpCTtJddnqkFZGWaePFnlYIhVj5ronRJYKxCRYIlQSe2KQIpnW3wKlisjYHmb/CgCb1GB0Dxr4gU98O4Uq283yiBV9WkDmrDBzN6jH69CtKrBaGPBpByjUQyA+xcl2QqatgwaN2otx2XryutN0hk6lrQyQNjmBQi9Jam1QjAFLM+lVFzM+3MnawA3dj8B8Jse3rYvwhcEXaGNvH5Ml1QdZ0czCoSck+mf8yyW1l48WbLHhyweG0kLsrROAmG05CbNxTTJSzwqFcNmYPsREF+L0m89cW8ZzDwvPJVqCYNSuKWHLCxvhHbcQHQyx5O8jUty289rCNil2dkwmL/gnuh6BNTfYrx0n3kRPpfsH7SznXwkOJ8MpbMHrs5S5GRETqquqHQIeF2BgrUZVta2Bj7N0m49YGWeN2kJQdZOWPNib1Lx9YHA0sxDYvGeqKvQ+ycorYtjfE6BgL23aY+KLtzO5twwXE97OT/bXB+h0hRt97enjMQlQzK7FNgJZWxh4JMXJjiCwDejewEt+gtNkpEwcQ1cJKfE3ecWeE2LavmB6D7QxKKAmNsS2tuDudaRJ1k50ROwyW/Muk91Abjrwg8/fCoMfsxFrBAzjirLi9JpkBGyk/hsgsstKjlUm5ca4IC7EtS65nbEsLKTtM5ntLRwcPm6zPs9DjYTspcRbAyqReIYatNdn4g41BjWpwTvvgrYMwurJRQNNHRvrzpK/LJq8AnC1a0/WhScy8r11pg3xWTxzO3J0lPyWMmc+rj8SW2T+LuUOn4b13DM12ruLjXD/E3E7qtMnc81OzALvfmMVz//wCrxlF14f643xvKYFRS5h9d/XjrH/rUuYsXMOW3HyIakf3wWOYMsxd/UBs+shIn0f6ui/IK3AQ3el2Rk5I5Z62jpLte9N5+L+y6DrUxTcfZuMtgLg7RjNlQn/iSptQsI93X05n2UfZJX3c0IsxE8bQN7akgf/NiTz0Vixjevp5Z90evAEnnYc+zczHz67z7lth0ir44gm4sbL3cRsB/MeLcDRuitNRyXYREZGfqdbWBEZ1iWB062KWrDaYk1FM0t12ejQ4xw5WcFrBCAGhYnK/gyiX5cx7ia1WEqPB7w3hq2R3IxBiY04I7BactXUWVnA6IDcvRKDKmWUrQwbYcO4JsiQvxJoNJnSxM6J1mSZ2K73bFrMxu5jcXSZ0sBF/jhoDh0wyv4P4mJLgaXhDeLCQGHNm9NIZYyW29DrVxHdfwd5m4G5WyXE3zGP6Orj32fm89cZ8XvrvIXSpX7ZFUx6Yu56MjxaRmlhVEjH4/KNcbp22iPfenk9qy+3MS9/007R94MO5/OYf39F1wlxef2Uyt/7nfTKO1OwcjOx0npqxCceAybz6xiJendwbY9VMpr+TX+0+chZPY/qGIu76fRrL/z6DYY2/YO5v5/F5QZlG5j7+7Uli5mtLee+1yXTePY+pi/eVbszn3RmTSfd0ZMyf01j+91mMiclmztTF7DbK1HroU/7dYDQvrVjJW3+6naPLXmTZ3rPraZUIbf4XthytvF7/upncP3QUc7ZW+xRFRERqpPrxaX+QYdMK6Xf637OnmH+wbAMLKXfbiMoLkR1tO7OWrzLBYrIyTDILLSTGWYBi/D+Cs375fZyRFjhZfCaQhULMn1Ny/HtnGyzab8Hdw4a7+uOZ52a3MeIeG3xexLDZp3hmaRGLPjPxBSu0i7Ez/kZYs7SIJUetjL7r7Cla9w1WfF8FWZkNPW6o5FocDDLs2UL6PVvIg68E8bePYMptJV9H4CQYgLPsS5obgJNi/D/W7C1/Bw4CzaBVJaNNR4/4IaojXW9wEdXCRdxNvXi4X7uzG55HwoDhJLcAHC7u7NkRIyebPBMgn483bIc7xpDapx3RMR15IHUwnWvUe4CMpe9zos84ptznJs7lIq7bYFIHtuLzDzPxV6cLcw8bNviIGzyOkd1iS+qYMJyu/k28s7VMgsPFXQ/1J9oBNHYz/P5EvB+uZ7cJ5K5h2Y7WjPrdKJITY4mOaUffX42gu38jG8qsl3U4b2bYg+1wAs4betC9hY9dOQHO0hJcwAFvjS6GiIhIrflZawKjmpdv4tkVwmMHvCGyfoDeFaYtcz8y6PdR6Q8OC0k9T68ZrGYNVgtDHokgpUEx2TtM1ttsTEm2UpuzZa4uESxobyc7xyQrL8S2TUWs/DTEtLERJP0Uyiy4+9hI3BkkkBxB70rmJB1xNpKOG6yJtLOgOWSfdaAyawK/C7FkXZDnMk+vCaxEda9RBQUGUA/qV7ItrmcKnVfN46mRWXS9KZEunW7mrj5uomp0QR00a3FmkYDT4YACgxMApo8D30Jct9ZnvqOo1sQ1hmpnH/Mge/8TwP/JFPq+XWFbrJ+jJkRVNp1aVoGHPL+DuLZlprIbxxLXAj4/5ANKP7e5+EXMmSZRrlY4/Ac5UABxObl4jT3MHZrC3Arnn+w34PQZNnbR7HQ9toZcUx9OFQSg4p8JNqgHFFb8A+P0se97joz7znNeIiIiP0PtrAkEOBxkTmYxPR5w4N5RxPz3TZKGlh8hi02KYEqSBYfdQlSTstO4FqIaQKCg/ChXoLAYGlZo16JkTWBstAXfy0XM2Wn96S7cWuOwkNjJTmInGNHTZPrfiliZZSepe5njRJbW1aCKY1utDBloJ95uI9ZaSQgstybQiut4iCc3m2T1sJLYsCRSBAr5KVtQCAEsxFd1vCq4mgAnIB9oVXFj7ECeX3Yzu7du57Mvt/HOvFUs/mQir/6pP9E1OsrF5qBT6nxeGlqTBZ4X4hSYZX8uHSU8/Vnj/sx+cyLdzxU6zxdITzsBxwDXRbjhWkREpDpqZzVdKMTKtUE87eyM7WQtmRbeG2R+TvlQ52hgIb6lldioCuv4rBbiW4HfV3xm/V8oRLYXoqKtVPpfv9XKkFstZG8KkmVU1qCWRFpwRULAqNk0LIArwU5K2+qFNocdjMKSqW9HtJVYisk+dOaYgUMhPKXXqSbaXA/1vLC3qmtU30WnngMZOWEGr07uBTsy2V1QRduasrlocy3k5Rzkp8P7D5J3vJK2DgcOijhVsU5ba9pfB3lf7qGSSdXqqR9LXJRB3v4yzzk87iHvCETHlPntMn18858zBXj3ezAat6aNE5wJ8UQX7GHX/gstorzCA/B1PejQpooGRgD/kXwCF/N3W0RE6rTqh0CjGM+hELm+M/88pf8r+7YFWfKdlbF3l0xv0tLG+K6wcV2Q7Cqmu8qzkNTNhstrMucjk9zDITI/CLL+BwspN1VdorOTjR4hkyWf1zygVSoUYv7fDeZvMck6GMLjM1m/Psj6YxbcbWv5udpFxXgOh/AcDpG9J0jalhCOOGvJcxZb2kiJKybzX0HW54XI3RdkzqYQjva2ClPsxfi/K/+d5PqKy4WlSDf0BLbsObuEvHXpLFiXRZ4vH79vD//6ZA+GK/7M3bA/W1Pu7HczfLKIeR/tw+/bx7svr2JXZU1btOP6xj4+fm87eUfy8R8/nX6cJD80kGZb5zN14afkHPLhzc0iY8U8Zq3YV1lPZ7N1pF8/F3mrXmT5Dg/eQ3tYPW8pWxr34t5uZU82n48Xp5Ox34f3q7XMW3WQ6H696WQD4vszrJufZX+cxeqdHrw+D7u3vs+CP6WTUVmoPY8vPgN+CT2rutZb5/LQ0OFMXVf9m19ERERqovrTwYdMnnml3FwZrtscvNY9RNrGEPE9HaT89NBiC4k97fTYVURaho0Xe56/e0c7OzPvCzJnUxFPfwSOJlZSBjsYHXOunWwMcgcZlxkkq2sE7p8bXqwW3G0trNwRZP0HxQSCpQ+1HhrB2Nbn371GfCbPpJVcz5IHX9uZ3d9eOt1uYdDQCAJrgyxabOK3Wohvb2fmwAo3oISKWfmGwcpy52BlyhQHvU+vX2wCo++Eie/DH26EsveaOOobfPOP53nzbz4CppO4Tr2Y+D/DSTg9pbl1FgMmn7nTl+yxJKcD9Xsx+53J1XpuoLPPRP7im8VzcyfybukjYpKjlhKwVfiybG5G/fdAps+dwaMrDIgfxesLhhMHOLqM4YUZTtIWp/PUMh+GoynRHdzcNbTKxQlnSRg1nWkFz5M+YzzzAg6iE29n8p9T6V72gto6ck9ygMW/HktOQUM69Ull5qiOpRtd3PP7WZCezrIZ45l7HKJcrel8yyDurGzB5bkY8NYn8MCvoXEVTQIBA3AS1aJhDTsXERGpHothXMA8p4SXAzBgHIx6HR6u5FExl5TxKdMfTKPes0uZ3O0y11LW3nQe/q99jFzxHPdUlcxqyfF1cOtKeHM+dKh0DaHBllkjmJozmFdfGU5cddcZioiI1IDeHVwXtIE5TwOHL8OxjX188M52co4EMAp8fP6PlWxx9uCuGy5DLVeIA8AfJlcVAAFzH5/tjiB51EAFQBERuWhq6wl7coXr0A86XI4Dmyc48OE80ub58Rsl07CpM8fQtQ6/BePGu+HGczWwdST1taWXqhwREamj6sx0sH9vkCU55zjVSCtD+toqvxNZrlj+rUtZutVPVTfROpxuHnz89ivskTciIiKXX50JgSIiIiJyhtYEioiIiNRBCoEiIiIiddD/B16afi0Wdw+/AAAAAElFTkSuQmCC;" parent="1" vertex="1">
                    <mxGeometry x="70" y="140" width="641" height="331" as="geometry"/>
                </mxCell>
                <mxCell id="3" value="&lt;span style=&quot;font-size: 15px&quot;&gt;控制流追踪&lt;/span&gt;" style="shape=flexArrow;endArrow=classic;html=1;exitX=0.5;exitY=1;exitDx=0;exitDy=0;" parent="1" edge="1" source="4">
                    <mxGeometry x="-0.2" y="40" width="50" height="50" relative="1" as="geometry">
                        <mxPoint x="390" y="160" as="sourcePoint"/>
                        <mxPoint x="390" y="200" as="targetPoint"/>
                        <mxPoint as="offset"/>
                        <Array as="points">
                            <mxPoint x="390" y="200"/>
                        </Array>
                    </mxGeometry>
                </mxCell>
                <mxCell id="4" value="标记pid进程&lt;br&gt;ERA开启随机化" style="shape=process;whiteSpace=wrap;html=1;backgroundOutline=1;fontSize=15;" parent="1" vertex="1">
                    <mxGeometry x="310.5" y="120" width="160" height="40" as="geometry"/>
                </mxCell>
                <mxCell id="6" value="取消pid进程标记&lt;br&gt;ERA结束随机化" style="shape=process;whiteSpace=wrap;html=1;backgroundOutline=1;fontSize=15;" parent="1" vertex="1">
                    <mxGeometry x="310.5" y="460" width="159.5" height="40" as="geometry"/>
                </mxCell>
                <mxCell id="9" value="&lt;span style=&quot;font-size: 15px&quot;&gt;控制流追踪&lt;/span&gt;" style="shape=flexArrow;endArrow=classic;html=1;" edge="1" parent="1">
                    <mxGeometry x="-0.2" y="40" width="50" height="50" relative="1" as="geometry">
                        <mxPoint x="390" y="410" as="sourcePoint"/>
                        <mxPoint x="389.75" y="460" as="targetPoint"/>
                        <mxPoint as="offset"/>
                        <Array as="points">
                            <mxPoint x="389.75" y="460"/>
                        </Array>
                    </mxGeometry>
                </mxCell>
                <mxCell id="10" value="检查pid标记&lt;br&gt;ERA实施随机化" style="shape=process;whiteSpace=wrap;html=1;backgroundOutline=1;fontSize=15;" vertex="1" parent="1">
                    <mxGeometry x="310.5" y="230" width="160" height="40" as="geometry"/>
                </mxCell>
            </root>
        </mxGraphModel>
    </diagram>
</mxfile>